<svg width="65" height="64" viewBox="0 0 65 64" fill="none" xmlns="http://www.w3.org/2000/svg">
<path d="M26.9823 3.68056C26.0715 3.71735 25.1893 3.89534 24.4615 4.489C23.7337 5.08279 23.3684 6.09593 23.4262 7.10296C23.5416 9.11696 24.7888 11.5362 27.3965 15.2952C29.0939 17.7419 29.8545 19.2512 31.3217 21.8884C31.4267 22.0781 31.5805 22.2364 31.7672 22.347C31.954 22.4575 32.1669 22.5163 32.3841 22.5172H38.4881C38.7286 22.5163 38.9636 22.4445 39.1633 22.3108C40.4208 21.4743 43.9291 18.6957 46.8158 15.4211C48.2592 13.7838 49.531 12.0516 50.2099 10.283C50.8889 8.51441 50.8832 6.44546 49.4627 5.0281C48.6747 4.24183 47.5693 4.17355 46.6628 4.31847C45.7562 4.46334 44.8729 4.80179 44.0069 5.15386C43.1408 5.50569 42.2975 5.87281 41.5941 6.115C40.8907 6.35738 40.322 6.41434 40.2167 6.39319C38.0826 5.96731 35.6287 5.27158 33.3024 4.68648C30.9761 4.10133 28.8039 3.60398 26.9823 3.68056Z" fill="#7CB342"/>
<path d="M35.319 24.9516L31.7629 24.9608C31.5957 24.9602 31.4303 24.994 31.2767 25.0598C26.5378 27.1241 20.9195 31.0467 18.9247 36.7552C18.8513 36.9628 18.8357 37.1863 18.8795 37.402L23.435 59.2658C23.492 59.5404 23.6423 59.7869 23.8605 59.9636C24.0786 60.1404 24.3513 60.2366 24.6324 60.2359C24.6324 60.2359 30.0165 60.2129 35.4089 60.2359C35.4209 60.2361 35.4329 60.2361 35.4449 60.2359C42.4319 60.051 47.496 57.4515 50.3177 53.2923C53.1394 49.1331 53.6729 43.5862 52.1813 37.6804C52.1814 37.6743 52.1814 37.6682 52.1813 37.6621C50.5179 31.4679 44.5366 27.2316 39.5502 25.0594C39.3966 24.9935 39.2312 24.9598 39.064 24.9604L35.5079 24.9513H35.328C35.3249 24.9513 35.3221 24.9516 35.319 24.9516Z" fill="#7CB342"/>
<path d="M35.3185 24.9519L31.7621 24.9612C31.5952 24.9602 31.4298 24.9934 31.2762 25.0587C28.0467 26.4655 24.4121 28.7389 21.7909 31.8488C24.0009 29.9616 26.5218 28.5009 28.837 27.4923C28.9906 27.427 29.156 27.3938 29.3229 27.3948L32.8793 27.3857C32.8825 27.3856 32.8857 27.3856 32.889 27.3857H33.07L36.624 27.3948C36.7917 27.3934 36.958 27.4267 37.1123 27.4923C42.0987 29.6645 48.0783 33.9017 49.7418 40.0959C49.7418 40.102 49.7418 40.1081 49.7418 40.1142C51.2333 46.02 50.7008 51.5649 47.879 55.7242C47.711 55.972 47.5342 56.2148 47.3502 56.4513C48.516 55.5372 49.5116 54.4795 50.3182 53.2904C53.14 49.1312 53.6725 43.5862 52.181 37.6805C52.181 37.6744 52.181 37.6682 52.181 37.6621C50.5175 31.4679 44.5379 27.2308 39.5515 25.0586C39.3972 24.9929 39.2309 24.9598 39.0632 24.9612L35.5092 24.9519H35.3282C35.3249 24.9519 35.3217 24.9519 35.3185 24.9519Z" fill="#699938"/>
<path d="M32.3838 20.0823C30.378 20.0823 28.7298 21.7291 28.7298 23.7305C28.7298 25.7319 30.3779 27.3857 32.3838 27.3857H36.0474V31.034C36.0467 31.194 36.0777 31.3525 36.1386 31.5005C36.1995 31.6485 36.289 31.7831 36.4021 31.8966C36.5151 32.0101 36.6495 32.1001 36.7975 32.1617C36.9455 32.2233 37.1042 32.2552 37.2646 32.2555C37.4255 32.2561 37.585 32.225 37.7339 32.1638C37.8827 32.1027 38.0179 32.0127 38.1317 31.8991C38.2456 31.7856 38.3357 31.6507 38.397 31.5022C38.4583 31.3537 38.4896 31.1946 38.4889 31.034V27.3857H38.5866C40.5925 27.3857 42.2502 25.7319 42.2502 23.7305C42.2502 21.7291 40.5925 20.0823 38.5866 20.0823H32.3838Z" fill="#6D4C41"/>
<path d="M20.1941 35.9016C15.8297 35.9016 12.2625 39.4518 12.2625 43.8064C12.2625 48.161 15.8297 51.72 20.1941 51.72C24.5585 51.72 28.1167 48.161 28.1167 43.8064C28.1167 39.4518 24.5585 35.9016 20.1941 35.9016Z" fill="#FFCD40"/>
<path d="M15.3865 53.5974C13.5377 53.5974 12.0104 55.1124 12.0104 56.9569C12.0104 58.8015 13.5377 60.3254 15.3865 60.3254H24.0023C25.8511 60.3254 27.3784 58.8015 27.3784 56.9569C27.3784 55.1124 25.8511 53.5974 24.0023 53.5974H15.3865Z" fill="#FFCD40"/>
<path d="M20.195 35.9015C17.3893 35.9015 14.9171 37.3733 13.5062 39.5781C14.7369 38.7946 16.1939 38.3351 17.7558 38.3351C22.1202 38.3351 25.6784 41.8852 25.6784 46.2398C25.6784 47.7984 25.2156 49.2519 24.4302 50.4799C26.6413 49.0725 28.1176 46.6066 28.1176 43.8062C28.1176 39.4517 24.5594 35.9015 20.195 35.9015Z" fill="#F8A92D"/>
<path d="M15.3856 53.5981C13.7034 53.5659 12.168 54.9783 12.0412 56.6474C15.2739 56.6336 18.5068 56.6014 21.7394 56.5977C22.9679 56.6345 24.3359 57.2185 24.7791 58.4461C24.9867 59.0092 24.982 59.6347 24.8256 60.2099C26.364 59.8282 27.5082 58.2803 27.3693 56.697C27.2686 54.9996 25.7053 53.5604 24.0014 53.5961C21.1294 53.5968 18.2575 53.5974 15.3856 53.5981Z" fill="#F8A92D"/>
<path d="M16.7279 49.2856C14.8792 49.2856 13.3518 50.8096 13.3518 52.6541C13.3518 54.4988 14.8792 56.0228 16.7279 56.0228H25.3528C27.2015 56.0228 28.7289 54.4988 28.7289 52.6541C28.7289 50.8096 27.2015 49.2856 25.3528 49.2856H16.7279Z" fill="#FFCD40"/>
<path d="M16.7291 49.2867C15.1645 49.2867 13.839 50.3809 13.4657 51.8345C13.7311 51.7664 14.0048 51.7205 14.2899 51.7205H22.9129C24.7616 51.7205 26.2906 53.2436 26.2906 55.0881C26.2906 55.3719 26.2441 55.6441 26.1762 55.9081C27.6318 55.5346 28.7297 54.2148 28.7297 52.6545C28.7297 50.81 27.2008 49.2867 25.352 49.2867H16.7291Z" fill="#F8A92D"/>
<path d="M26.9814 3.68069C26.0706 3.71748 25.189 3.8951 24.4612 4.48885C23.9409 4.91335 23.6146 5.55457 23.4869 6.25226C23.8304 6.17638 24.182 6.12901 24.5422 6.11429C26.3637 6.03795 28.5378 6.53469 30.8641 7.11965C33.1904 7.70475 35.6427 8.4002 37.7767 8.82608C37.8821 8.84907 38.4525 8.78935 39.1559 8.54789C39.8594 8.30552 40.7005 7.93956 41.5665 7.58773C42.4326 7.2359 43.316 6.89595 44.2225 6.75108C45.129 6.60621 46.2357 6.67566 47.0238 7.46169C48.4443 8.87905 48.4507 10.948 47.7717 12.7166C47.0928 14.4852 45.8207 16.2175 44.3773 17.8548C44.1982 18.0581 44.0103 18.2522 43.8271 18.4514C44.8269 17.5192 45.8482 16.5196 46.8165 15.4212C48.2599 13.7839 49.532 12.0514 50.2109 10.2828C50.8899 8.51427 50.8835 6.44531 49.463 5.02795C48.6749 4.24168 47.5682 4.17242 46.6617 4.31734C45.7552 4.46221 44.8718 4.80193 44.0057 5.15399C43.1397 5.50582 42.2985 5.87196 41.5951 6.11415C40.8917 6.35653 40.3213 6.41349 40.2159 6.39233C38.0819 5.96646 35.6296 5.27101 33.3033 4.68591C30.977 4.10076 28.803 3.60412 26.9814 3.68069Z" fill="#699938"/>
<path d="M26.9863 3.67635C26.0755 3.71315 25.1843 3.89062 24.4566 4.48437C23.7288 5.07817 23.3722 6.09173 23.4299 7.09875C23.5453 9.11275 24.7931 11.5416 27.4007 15.3005C28.7682 17.2716 29.5795 18.745 30.5879 20.5768C29.4844 21.2108 28.7228 22.3855 28.7228 23.733C28.7228 24.5537 29.0129 25.3074 29.4803 25.9196C25.4307 28.01 21.17 31.3695 19.2423 35.9585C15.321 36.4293 12.2582 39.7765 12.2582 43.8111C12.2582 46.1907 13.3262 48.3254 15.0047 49.7765C14.0248 50.3696 13.3563 51.4354 13.3563 52.6499C13.3563 53.1581 13.4807 53.6367 13.6874 54.0711C12.6899 54.66 12.0057 55.7335 12.0057 56.9611C12.0057 58.8057 13.5323 60.3289 15.381 60.3289C22.0187 60.3473 29.3393 60.3013 35.4044 60.3289C41.296 60.3289 47.6299 57.5585 50.3206 53.2963C53.1423 49.1371 53.6773 43.5802 52.1857 37.6745C52.1833 37.6699 52.1798 37.6607 52.1761 37.6561C50.7205 32.2362 45.9579 28.3215 41.4498 25.9725C41.9411 25.3512 42.2454 24.5768 42.2454 23.7313C42.2454 22.6227 41.7301 21.6335 40.9377 20.96C42.5774 19.6504 44.8193 17.6824 46.8094 15.4248C48.2527 13.7875 49.5248 12.055 50.2037 10.2865C50.8827 8.51793 50.8787 6.43957 49.4582 5.02221C48.6702 4.23594 47.5634 4.16892 46.6569 4.31384C45.7504 4.45871 44.867 4.79609 44.0009 5.14811C43.1349 5.49994 42.2914 5.87562 41.588 6.11782C40.8845 6.36019 40.3165 6.40985 40.2111 6.3887C38.0771 5.96282 35.6224 5.26737 33.2961 4.68227C30.9698 4.09717 28.8078 3.59982 26.9863 3.67635ZM27.0863 6.1101C28.3343 6.05767 30.4311 6.47289 32.7031 7.04401C34.9751 7.6155 37.4531 8.32357 39.7349 8.77893C40.6947 8.97026 41.5268 8.71421 42.3813 8.42033C43.2358 8.12598 44.1041 7.73491 44.9205 7.40304C45.737 7.07098 46.5129 6.806 47.0453 6.72092C48.5893 6.63721 48.1989 8.68879 47.9267 9.41614C47.6354 10.1748 47.1147 11.043 46.476 11.9354C40.6012 13.5943 34.6444 12.5221 27.4174 10.728C26.3942 8.90544 25.896 7.59992 25.8595 6.96331C25.8595 6.28756 26.4178 6.1101 27.0863 6.1101ZM29.2611 13.6797C30.551 13.9786 31.8098 14.2343 33.0557 14.4616L33.5606 20.0777H33.1009C31.7394 17.6558 30.4993 15.4883 29.2611 13.6797ZM35.5401 14.8537C36.307 14.9558 37.0706 15.0396 37.8269 15.0961L36.0225 20.0776L35.5401 14.8537ZM43.932 14.9535C42.0946 16.8545 40.0854 18.5462 38.8345 19.5215L40.3851 15.1865C41.5724 15.1819 42.7542 15.1173 43.932 14.9535ZM32.3887 22.5113H38.5915C39.2882 22.5113 39.8063 23.0378 39.8063 23.733C39.8063 24.4281 39.2882 24.9475 38.5915 24.9475H32.3887C31.6919 24.9475 31.1643 24.4281 31.1643 23.733C31.1643 23.0378 31.6919 22.5113 32.3887 22.5113ZM38.7246 27.3812C43.239 29.3851 48.4835 33.3346 49.8177 38.2782C51.1844 43.6978 50.6294 48.4921 48.2956 51.9321C45.9605 55.3741 41.8026 57.6347 35.3755 57.8048C31.307 57.7864 29.0012 57.8002 27.2599 57.8048C27.3319 57.5335 27.3814 57.2535 27.3814 56.9611C27.3814 56.4512 27.2559 55.9706 27.0479 55.5351C28.0423 54.9455 28.7224 53.8751 28.7224 52.6497C28.7224 50.9756 27.4619 49.5784 25.8473 49.332C27.2492 47.9053 28.1198 45.9577 28.1198 43.8111C28.1198 40.0326 25.4336 36.8572 21.8717 36.082C23.9152 32.1767 28.2764 29.0785 32.1001 27.3812H36.0427V31.0269C36.0427 32.6498 38.4819 32.6498 38.4819 31.0269V27.3812H38.7246ZM34.3062 36.6596V37.1181H33.17C33.1313 37.1163 33.0922 37.1163 33.0533 37.1181C32.4294 37.1807 31.9546 37.7047 31.9552 38.3302V42.9219C31.9576 43.5902 32.5002 44.1314 33.17 44.134H36.6549V46.8458H33.17C31.5069 46.809 31.5069 49.3168 33.17 49.2796H34.3062V49.7381C34.3062 51.3609 36.7454 51.3609 36.7454 49.7381V49.2796H37.8793C38.5491 49.2769 39.0914 48.7358 39.0941 48.0675V42.9219C39.0965 42.2499 38.5528 41.703 37.8793 41.7003H34.3943V39.5519H37.8793C39.5423 39.5887 39.5423 37.0809 37.8793 37.1181H36.7454V36.6596C36.7583 35.9697 36.1935 35.4084 35.5108 35.4218C34.8281 35.4356 34.2935 35.9873 34.3062 36.6596ZM20.1879 38.3304C23.2341 38.3304 25.6809 40.7717 25.6809 43.8111C25.6809 46.8504 23.2341 49.2797 20.1879 49.2797C17.1417 49.2797 14.6973 46.8504 14.6973 43.8111C14.6973 40.7717 17.1417 38.3304 20.1879 38.3304ZM16.7316 51.7158H25.3474C25.887 51.7158 26.2835 52.1118 26.2835 52.6499C26.2835 53.1883 25.887 53.5838 25.3474 53.5838H16.7316C16.192 53.5838 15.7955 53.1879 15.7955 52.6499C15.7955 52.1115 16.192 51.7158 16.7316 51.7158ZM15.381 56.0271H24.0063C24.5459 56.0271 24.9425 56.4231 24.9425 56.9611C24.9425 57.4995 24.5459 57.8951 24.0063 57.8951H15.381C14.8413 57.8951 14.4448 57.4991 14.4448 56.9611C14.4448 56.4227 14.8414 56.0271 15.381 56.0271Z" fill="black"/>
</svg>
