<svg width="65" height="64" viewBox="0 0 65 64" fill="none" xmlns="http://www.w3.org/2000/svg">
<g clip-path="url(#clip0_60_153)">
<path d="M55.553 47L58.5097 48.97C56.8587 51.4835 54.8499 53.7439 52.5463 55.68V49L55.553 47Z" fill="#C74841"/>
<path d="M28.4921 18V22H26.4876L25.4853 20L28.4921 18Z" fill="#C74841"/>
<path d="M58.5598 27L59.5621 26L58.5598 23L53.5485 19V18H49.5395L45.5305 19H41.5214L40.5192 17H35.5079L33.5034 20H37.5124L38.5147 22L35.5079 23H33.5034L28.4921 28V31H29.4944L33.5034 27H35.5079L37.5124 31H40.5192V33H39.5169H35.5079L34.5056 32H32.5011L26.4876 37V41L28.4921 43H33.5034V44L34.5056 46V49L35.5079 54H39.5169L42.5237 49V48L41.5214 46L44.5282 44V42H39.5169V36H41.5214L42.5237 39H45.5305V36L44.5282 34L48.5372 35V39H49.5395L52.5463 36L53.5485 40V44H55.553V40H57.5576V39L55.553 37H56.5553L57.5576 34V32H59.5621V29L58.5598 28V27Z" fill="#C74841"/>
<path d="M18.4695 13L14.4605 14L8.44696 19L4.43793 23V25H6.44244V34L8.52714 35.38L9.44921 36L12.456 40V44L14.4605 45L15.4628 51H17.4673L20.474 47V45L21.4763 43L18.4695 40L16.465 37H13.4582H12.456L11.4537 34H9.44921V32H12.456V30L13.4582 29L14.4605 28V26L17.4673 25V24L16.465 22H13.4582L12.456 24L10.4515 23L11.4537 21L12.456 20L13.4582 19L14.4605 20L16.465 19V17L15.4628 16H17.4673H19.4718V19V21H21.4763V19L24.4831 18L27.4898 14V13L28.4921 12V10L18.4695 13Z" fill="#C74841"/>
<path d="M1.43115 32C1.43292 27.1731 2.56434 22.4134 4.73532 18.0998C6.90629 13.7863 10.0568 10.0382 13.936 7.154C17.8151 4.26982 22.3157 2.32928 27.0792 1.48696C31.8427 0.64464 36.7376 0.923804 41.3738 2.30222C46.0101 3.68063 50.2598 6.12021 53.7842 9.42663C57.3087 12.7331 60.0107 16.815 61.6749 21.3472C63.3391 25.8795 63.9195 30.7369 63.37 35.5325C62.8205 40.3281 61.1562 44.9294 58.5097 48.97L55.553 47L52.5463 49V55.68C48.0215 59.4921 42.4991 61.9345 36.6296 62.7197C30.76 63.5048 24.7879 62.5999 19.4166 60.1115C14.0453 57.6232 9.49858 53.655 6.31213 48.6746C3.12568 43.6941 1.43219 37.9087 1.43115 32ZM24.4831 18L27.4898 14V13L28.4921 12V9.99999L18.4695 13L14.4605 14L8.44695 19L4.43792 23V25H6.44244V34L8.52713 35.38L9.44921 36L12.456 40V44L14.4605 45L15.4628 51H17.4673L20.474 47V45L21.4763 43L18.4695 40L16.465 37H12.456L11.4537 34H9.44921V32H12.456V30L13.4582 29L14.4605 28V26L17.4673 25V24L16.465 22H13.4582L12.456 24L10.4515 23L11.4537 21L12.456 20L13.4582 19L14.4605 20L16.465 19V17L15.4628 16H19.4718V21H21.4763V19L24.4831 18ZM25.4853 20L26.4876 22H28.4921V18L25.4853 20ZM44.5282 42H39.5169V36H41.5214L42.5237 39H45.5305V36L44.5282 34L48.5372 35V39H49.5395L52.5463 36L53.5485 40V44H55.553V40H57.5576V39L55.553 37H56.5553L57.5576 34V32H59.5621V29L58.5598 28V27L59.5621 26L58.5598 23L53.5485 19V18H49.5395L45.5305 19H41.5214L40.5192 17H35.5079L33.5034 20H37.5124L38.5147 22L35.5079 23H33.5034L28.4921 28V31H29.4944L33.5034 27H35.5079L37.5124 31H40.5192V33H35.5079L34.5056 32H32.5011L26.4876 37V41L28.4921 43H33.5034V44L34.5056 46V49L35.5079 54H39.5169L42.5237 49V48L41.5214 46L44.5282 44V42Z" fill="#34C1AD"/>
<path d="M52.5463 50.59V55.68C54.8499 53.7439 56.8587 51.4835 58.5097 48.97L57.2388 48.123C55.7484 49.0779 54.1784 49.9033 52.5463 50.59Z" fill="#AD3A34"/>
<path d="M39.5169 54L40.1243 52.99C38.478 52.9694 36.8359 52.8193 35.2133 52.541L35.5079 54H39.5169Z" fill="#AD3A34"/>
<path d="M4.43793 23V25H6.44244V34L8.52714 35.38L9.44921 36L12.456 40V44L14.4605 45L15.4628 51H17.4673L20.474 47V45.678C17.5845 43.2414 15.163 40.3009 13.3279 37H12.456L11.4537 34H9.44921V32H11.111C9.56247 27.4836 9.08726 22.67 9.72283 17.939L8.44696 19L4.43793 23Z" fill="#AD3A34"/>
<path d="M9.44922 34H11.4537L12.456 37H13.328C12.4418 35.4022 11.6999 33.729 11.111 32H9.44922V34Z" fill="#21ABAB"/>
<path d="M40.5192 53C40.3869 53 40.2566 52.992 40.1243 52.99L39.5169 54H35.5079L35.2152 52.541C29.7761 51.6058 24.6865 49.2363 20.474 45.678V47L17.4673 51H15.4628L14.4605 45L12.456 44V40L9.44921 36L8.52714 35.38L6.44244 34V25H4.43793V23L8.44696 19L9.72283 17.939C10.1737 14.4945 11.2056 11.1509 12.7747 8.04999C9.57658 10.6352 6.92515 13.8286 4.97442 17.4448C3.02369 21.0611 1.81255 25.028 1.41133 29.1151C1.01012 33.2023 1.42683 37.3283 2.63726 41.2534C3.8477 45.1786 5.82773 48.8246 8.46235 51.9798C11.097 55.135 14.3337 57.7364 17.9844 59.633C21.6352 61.5296 25.6273 62.6836 29.7288 63.0278C33.8303 63.3721 37.9595 62.8998 41.8765 61.6384C45.7936 60.377 49.4204 58.3517 52.5463 55.68V50.59C48.7384 52.1854 44.6492 53.0048 40.5192 53Z" fill="#21ABAB"/>
<path d="M58.5097 48.97C59.1386 48.0005 59.7125 46.9966 60.2286 45.963C59.2754 46.7409 58.2771 47.4622 57.2389 48.123L58.5097 48.97Z" fill="#21ABAB"/>
<path d="M43.2153 10H37.5124V7C41.1707 7.05 42.664 8.92 43.2153 10Z" fill="#96E0FF"/>
<path d="M20.7246 7.67L17.2167 1H20.7246L28.2516 7.35C25.8261 7.48 23.2202 7.62 20.7246 7.76V7.67Z" fill="#D4D4D4"/>
<path d="M37.5124 10H43.2153C43.35 10.236 43.4544 10.488 43.526 10.75C43.526 10.75 43.526 13 40.0181 13H32.6214L21.3961 21H16.7156L23.2703 13H6.15178C5.37423 13.0412 4.60614 12.8142 3.9765 12.3572C3.34685 11.9001 2.89401 11.2408 2.694 10.49L1.43115 4H4.05707L8.44695 8.5C8.44695 8.5 14.23 8.13 20.7246 7.76C23.2202 7.62 25.8261 7.48 28.2516 7.35C32.2405 7.15 35.7184 7 37.3821 7H37.5124V10Z" fill="#E3E3E3"/>
<path d="M12.0551 16H15.4628H17.4673H19.4718H20.2636L19.4718 16.966V17.636L23.2703 13H18.4695L14.4605 14L12.0551 16Z" fill="#AD3A34"/>
<path d="M15.3475 22L13.7088 24H17.4673L16.465 22H15.3475Z" fill="#AD3A34"/>
<path d="M14.4605 14L18.4695 13H7.96087C7.21096 13.9585 6.51821 14.9603 5.8862 16H12.0551L14.4605 14Z" fill="#21ABAB"/>
<path d="M21.3961 21H16.7156L19.4718 17.636V16.966L15.3475 22H16.465L17.4673 24H18.3894L29.6146 16H37.0113C40.5192 16 40.5192 13.75 40.5192 13.75C40.4476 13.488 40.3432 13.236 40.2085 13V12.992C40.1444 12.992 40.0882 13 40.0221 13H32.6214L21.4763 20.943V21H21.3961Z" fill="#21ABAB"/>
<path d="M23.551 6C23.221 5.99994 22.8961 5.91858 22.6051 5.76315C22.3142 5.60772 22.0662 5.38302 21.8832 5.109L19.138 1H17.2167L20.7246 7.67V7.76C23.2202 7.62 25.8261 7.48 28.2516 7.35L26.651 6H23.551Z" fill="#BFBFBF"/>
<path d="M39.5169 9H42.5237C41.4803 7.87481 40.0471 7.18769 38.5147 7.078V8C38.5147 8.26522 38.6203 8.51957 38.8082 8.70711C38.9962 8.89465 39.2511 9 39.5169 9Z" fill="#B3F5FF"/>
<path d="M20.7246 7.667L17.2167 1H20.7246L28.6174 7.667" stroke="black" stroke-width="2" stroke-linejoin="round"/>
<path d="M37.3871 7C32.1253 7 8.44695 8.5 8.44695 8.5L4.06208 4H1.43115L2.697 10.493C2.89816 11.2433 3.35168 11.9019 3.98157 12.3583C4.61145 12.8147 5.37943 13.0413 6.1568 13H23.2683L16.7196 21H21.3971L32.6224 13H40.0181C43.526 13 43.526 10.75 43.526 10.75C43.526 10.75 42.649 7 37.3871 7Z" stroke="black" stroke-width="2" stroke-linejoin="round"/>
<path d="M37.5124 7V10H43.526" stroke="black" stroke-width="2" stroke-linejoin="round"/>
<path d="M35.5079 33H40.5192V31H37.5124L35.5079 27H33.5034L29.4944 31H28.4921V28L33.5034 23H35.5079L38.5147 22L37.5124 20H33.5034L35.5079 17H40.5192L41.5214 19H45.5305L49.5395 18H53.5485V19L58.5598 23L59.5621 26L58.5598 27V28L59.5621 29V32H57.5576V34L56.5553 37H55.553L57.5576 39V40H55.553V44H53.5485V40L52.5463 36L49.5395 39H48.5372V35L44.5282 34L45.5305 36V39H42.5237L41.5214 36H39.5169V42H44.5282V44L41.5214 46L42.5237 48V49L39.5169 54H35.5079L34.5056 49V46L33.5034 44V43H28.4921L26.4876 41V37L32.5011 32H34.5056L35.5079 33Z" stroke="black" stroke-width="2" stroke-linejoin="round"/>
<path d="M58.5598 49L55.553 47L52.5463 49V56" stroke="black" stroke-width="2" stroke-linejoin="round"/>
<path d="M17.4673 23V25L14.4605 26V28L13.4582 29L12.456 30V32H9.44921V34H11.4537L12.456 37H13.4582H16.465L18.4695 40L21.4763 43L20.474 45V47L17.4673 51H15.4628L14.4605 45L12.456 44V40L9.44921 36L6.44244 34V25H4.43793V23L8.44696 19L13.2578 15" stroke="black" stroke-width="2" stroke-linejoin="round"/>
<path d="M25.4853 1.79398C32.4677 0.179482 39.7948 1.02327 46.225 4.18235C52.6551 7.34143 57.7929 12.6215 60.7675 19.1278C63.7422 25.6341 64.3708 32.9664 62.5469 39.8823C60.723 46.7981 56.5587 52.8721 50.7597 57.075C44.9608 61.2778 37.8837 63.351 30.728 62.9432C23.5722 62.5354 16.7779 59.6717 11.4962 54.8373C6.2146 50.003 2.77057 43.4954 1.74778 36.4173C0.724985 29.3392 2.18633 22.126 5.88418 16" stroke="black" stroke-width="2" stroke-linejoin="round"/>
</g>
<defs>
<clipPath id="clip0_60_153">
<rect width="64.1445" height="64" fill="white" transform="translate(0.428894)"/>
</clipPath>
</defs>
</svg>
