<svg width="65" height="64" viewBox="0 0 65 64" fill="none" xmlns="http://www.w3.org/2000/svg">
<g clip-path="url(#clip0_60_123)">
<path d="M28.0945 52.249C28.0945 54.6403 30.0273 56.5687 32.424 56.5687C34.8206 56.5687 36.7534 54.6402 36.7534 52.249C36.7534 49.8576 34.8206 47.9293 32.424 47.9293C30.066 47.9291 28.0945 49.8576 28.0945 52.249ZM32.7333 52.249C32.7333 52.4032 32.6173 52.5576 32.424 52.5576C32.2694 52.5576 32.1147 52.4419 32.1147 52.249C32.1147 52.0947 32.2306 51.9404 32.424 51.9404C32.6173 51.9789 32.7333 52.0946 32.7333 52.249Z" fill="#008000"/>
<path d="M51.4043 33.08C52.0228 33.08 52.6413 32.8101 53.1052 32.3472C53.9556 31.4216 53.917 29.9559 52.9506 29.0689C47.3455 23.9392 40.0781 21.085 32.4241 21.085C24.8861 21.085 17.6574 23.862 12.0909 28.9146C11.1245 29.7631 11.0858 31.2288 11.9363 32.193C12.7867 33.1572 14.2557 33.1958 15.222 32.3472C19.9382 28.066 26.0845 25.7133 32.4628 25.7133C38.9185 25.7133 45.1035 28.1047 49.8196 32.4629C50.2832 32.8871 50.8245 33.08 51.4043 33.08Z" fill="#008000"/>
<path d="M42.7452 43.4552C43.3637 43.4552 43.9823 43.1852 44.4462 42.7224C45.2966 41.7967 45.258 40.3311 44.2916 39.4441C41.0445 36.4742 36.831 34.8157 32.4627 34.8157C28.0945 34.8157 23.9196 36.4356 20.7112 39.3283C19.7449 40.1768 19.7061 41.6425 20.5567 42.6067C21.4071 43.5709 22.876 43.6095 23.8424 42.7609C26.2004 40.601 29.293 39.4439 32.4627 39.4439C35.7099 39.4439 38.8024 40.6395 41.1604 42.838C41.6242 43.2623 42.204 43.4552 42.7452 43.4552Z" fill="#FFA500"/>
<path d="M62.2667 23.6691C62.8851 23.6691 63.5037 23.3992 63.9676 22.9363C64.818 22.0107 64.7794 20.545 63.813 19.658C55.2313 11.7513 44.0596 7.43146 32.3853 7.43146C20.827 7.43146 9.73274 11.7127 1.18963 19.4266C0.223268 20.275 0.184521 21.7407 1.03505 22.7049C1.88558 23.6691 3.35444 23.7078 4.3208 22.8591C12.0134 15.8781 21.9867 12.0598 32.3853 12.0598C42.8999 12.0598 52.9505 15.9553 60.6818 23.052C61.1457 23.4377 61.7256 23.6691 62.2667 23.6691Z" fill="#FFA500"/>
</g>
<defs>
<clipPath id="clip0_60_123">
<rect width="64.1445" height="64" fill="white" transform="translate(0.428955)"/>
</clipPath>
</defs>
</svg>
