<svg width="1440" height="962" viewBox="0 0 1440 962" fill="none" xmlns="http://www.w3.org/2000/svg">
<circle cx="1377" cy="100" r="125" fill="#F0ECC7" fill-opacity="0.5"/>
<mask id="mask0_191_891" style="mask-type:alpha" maskUnits="userSpaceOnUse" x="-38" y="-67" width="290" height="290">
<circle cx="-0.224699" cy="2.84002" r="5.71058" fill="#F0ECC7"/>
<circle cx="-0.224699" cy="13.5283" r="5.71058" fill="#F0ECC7"/>
<circle cx="-0.224699" cy="24.2165" r="5.71058" fill="#F0ECC7"/>
<circle cx="-0.224699" cy="34.9048" r="5.71058" fill="#F0ECC7"/>
<circle cx="-0.224699" cy="45.593" r="5.71058" fill="#F0ECC7"/>
<circle cx="-0.224699" cy="56.2812" r="5.71058" fill="#F0ECC7"/>
<circle cx="-0.224699" cy="66.9695" r="5.71058" fill="#F0ECC7"/>
<circle cx="-0.224699" cy="77.6578" r="5.71058" fill="#F0ECC7"/>
<circle cx="-0.224699" cy="88.346" r="5.71058" fill="#F0ECC7"/>
<circle cx="-0.224699" cy="99.0342" r="5.71058" fill="#F0ECC7"/>
<circle cx="-0.224699" cy="109.722" r="5.71058" fill="#F0ECC7"/>
<circle cx="-0.224699" cy="120.411" r="5.71058" fill="#F0ECC7"/>
<circle cx="-0.224699" cy="131.099" r="5.71058" fill="#F0ECC7"/>
<circle cx="-0.224699" cy="141.787" r="5.71058" fill="#F0ECC7"/>
<circle cx="-0.224699" cy="152.475" r="5.71058" fill="#F0ECC7"/>
<circle cx="-0.224699" cy="163.164" r="5.71058" fill="#F0ECC7"/>
<circle cx="-0.224699" cy="173.852" r="5.71058" fill="#F0ECC7"/>
<circle cx="-0.224699" cy="184.54" r="5.71058" fill="#F0ECC7"/>
<circle cx="-0.224699" cy="195.228" r="5.71058" fill="#F0ECC7"/>
<circle cx="-0.224699" cy="205.917" r="5.71058" fill="#F0ECC7"/>
<circle cx="-0.224699" cy="216.605" r="5.71058" fill="#F0ECC7"/>
<circle cx="10.4636" cy="2.84002" r="5.71058" fill="#F0ECC7"/>
<circle cx="10.4636" cy="13.5283" r="5.71058" fill="#F0ECC7"/>
<circle cx="10.4636" cy="24.2165" r="5.71058" fill="#F0ECC7"/>
<circle cx="10.4636" cy="34.9048" r="5.71058" fill="#F0ECC7"/>
<circle cx="10.4636" cy="45.593" r="5.71058" fill="#F0ECC7"/>
<circle cx="10.4636" cy="56.2812" r="5.71058" fill="#F0ECC7"/>
<circle cx="10.4636" cy="66.9695" r="5.71058" fill="#F0ECC7"/>
<circle cx="10.4636" cy="77.6578" r="5.71058" fill="#F0ECC7"/>
<circle cx="10.4636" cy="88.346" r="5.71058" fill="#F0ECC7"/>
<circle cx="10.4636" cy="99.0342" r="5.71058" fill="#F0ECC7"/>
<circle cx="10.4636" cy="109.722" r="5.71058" fill="#F0ECC7"/>
<circle cx="10.4636" cy="120.411" r="5.71058" fill="#F0ECC7"/>
<circle cx="10.4636" cy="131.099" r="5.71058" fill="#F0ECC7"/>
<circle cx="10.4636" cy="141.787" r="5.71058" fill="#F0ECC7"/>
<circle cx="10.4636" cy="152.475" r="5.71058" fill="#F0ECC7"/>
<circle cx="10.4636" cy="163.164" r="5.71058" fill="#F0ECC7"/>
<circle cx="10.4636" cy="173.852" r="5.71058" fill="#F0ECC7"/>
<circle cx="10.4636" cy="184.54" r="5.71058" fill="#F0ECC7"/>
<circle cx="10.4636" cy="195.228" r="5.71058" fill="#F0ECC7"/>
<circle cx="10.4636" cy="205.917" r="5.71058" fill="#F0ECC7"/>
<circle cx="10.4636" cy="216.605" r="5.71058" fill="#F0ECC7"/>
<circle cx="21.1518" cy="2.84002" r="5.71058" fill="#F0ECC7"/>
<circle cx="21.1518" cy="13.5283" r="5.71058" fill="#F0ECC7"/>
<circle cx="21.1518" cy="24.2165" r="5.71058" fill="#F0ECC7"/>
<circle cx="21.1518" cy="34.9048" r="5.71058" fill="#F0ECC7"/>
<circle cx="21.1518" cy="45.593" r="5.71058" fill="#F0ECC7"/>
<circle cx="21.1518" cy="56.2812" r="5.71058" fill="#F0ECC7"/>
<circle cx="21.1518" cy="66.9695" r="5.71058" fill="#F0ECC7"/>
<circle cx="21.1518" cy="77.6578" r="5.71058" fill="#F0ECC7"/>
<circle cx="21.1518" cy="88.346" r="5.71058" fill="#F0ECC7"/>
<circle cx="21.1518" cy="99.0342" r="5.71058" fill="#F0ECC7"/>
<circle cx="21.1518" cy="109.722" r="5.71058" fill="#F0ECC7"/>
<circle cx="21.1518" cy="120.411" r="5.71058" fill="#F0ECC7"/>
<circle cx="21.1518" cy="131.099" r="5.71058" fill="#F0ECC7"/>
<circle cx="21.1518" cy="141.787" r="5.71058" fill="#F0ECC7"/>
<circle cx="21.1518" cy="152.475" r="5.71058" fill="#F0ECC7"/>
<circle cx="21.1518" cy="163.164" r="5.71058" fill="#F0ECC7"/>
<circle cx="21.1518" cy="173.852" r="5.71058" fill="#F0ECC7"/>
<circle cx="21.1518" cy="184.54" r="5.71058" fill="#F0ECC7"/>
<circle cx="21.1518" cy="195.228" r="5.71058" fill="#F0ECC7"/>
<circle cx="21.1518" cy="205.917" r="5.71058" fill="#F0ECC7"/>
<circle cx="21.1518" cy="216.605" r="5.71058" fill="#F0ECC7"/>
<circle cx="31.84" cy="2.84002" r="5.71058" fill="#F0ECC7"/>
<circle cx="31.84" cy="13.5283" r="5.71058" fill="#F0ECC7"/>
<circle cx="31.84" cy="24.2165" r="5.71058" fill="#F0ECC7"/>
<circle cx="31.84" cy="34.9048" r="5.71058" fill="#F0ECC7"/>
<circle cx="31.84" cy="45.593" r="5.71058" fill="#F0ECC7"/>
<circle cx="31.84" cy="56.2812" r="5.71058" fill="#F0ECC7"/>
<circle cx="31.84" cy="66.9695" r="5.71058" fill="#F0ECC7"/>
<circle cx="31.84" cy="77.6578" r="5.71058" fill="#F0ECC7"/>
<circle cx="31.84" cy="88.346" r="5.71058" fill="#F0ECC7"/>
<circle cx="31.84" cy="99.0342" r="5.71058" fill="#F0ECC7"/>
<circle cx="31.84" cy="109.722" r="5.71058" fill="#F0ECC7"/>
<circle cx="31.84" cy="120.411" r="5.71058" fill="#F0ECC7"/>
<circle cx="31.84" cy="131.099" r="5.71058" fill="#F0ECC7"/>
<circle cx="31.84" cy="141.787" r="5.71058" fill="#F0ECC7"/>
<circle cx="31.84" cy="152.475" r="5.71058" fill="#F0ECC7"/>
<circle cx="31.84" cy="163.164" r="5.71058" fill="#F0ECC7"/>
<circle cx="31.84" cy="173.852" r="5.71058" fill="#F0ECC7"/>
<circle cx="31.84" cy="184.54" r="5.71058" fill="#F0ECC7"/>
<circle cx="31.84" cy="195.228" r="5.71058" fill="#F0ECC7"/>
<circle cx="31.84" cy="205.917" r="5.71058" fill="#F0ECC7"/>
<circle cx="31.84" cy="216.605" r="5.71058" fill="#F0ECC7"/>
<circle cx="42.5283" cy="2.84002" r="5.71058" fill="#F0ECC7"/>
<circle cx="42.5283" cy="13.5283" r="5.71058" fill="#F0ECC7"/>
<circle cx="42.5283" cy="24.2165" r="5.71058" fill="#F0ECC7"/>
<circle cx="42.5283" cy="34.9048" r="5.71058" fill="#F0ECC7"/>
<circle cx="42.5283" cy="45.593" r="5.71058" fill="#F0ECC7"/>
<circle cx="42.5283" cy="56.2812" r="5.71058" fill="#F0ECC7"/>
<circle cx="42.5283" cy="66.9695" r="5.71058" fill="#F0ECC7"/>
<circle cx="42.5283" cy="77.6578" r="5.71058" fill="#F0ECC7"/>
<circle cx="42.5283" cy="88.346" r="5.71058" fill="#F0ECC7"/>
<circle cx="42.5283" cy="99.0342" r="5.71058" fill="#F0ECC7"/>
<circle cx="42.5283" cy="109.722" r="5.71058" fill="#F0ECC7"/>
<circle cx="42.5283" cy="120.411" r="5.71058" fill="#F0ECC7"/>
<circle cx="42.5283" cy="131.099" r="5.71058" fill="#F0ECC7"/>
<circle cx="42.5283" cy="141.787" r="5.71058" fill="#F0ECC7"/>
<circle cx="42.5283" cy="152.475" r="5.71058" fill="#F0ECC7"/>
<circle cx="42.5283" cy="163.164" r="5.71058" fill="#F0ECC7"/>
<circle cx="42.5283" cy="173.852" r="5.71058" fill="#F0ECC7"/>
<circle cx="42.5283" cy="184.54" r="5.71058" fill="#F0ECC7"/>
<circle cx="42.5283" cy="195.228" r="5.71058" fill="#F0ECC7"/>
<circle cx="42.5283" cy="205.917" r="5.71058" fill="#F0ECC7"/>
<circle cx="42.5283" cy="216.605" r="5.71058" fill="#F0ECC7"/>
<circle cx="53.2165" cy="2.84002" r="5.71058" fill="#F0ECC7"/>
<circle cx="53.2165" cy="13.5283" r="5.71058" fill="#F0ECC7"/>
<circle cx="53.2165" cy="24.2165" r="5.71058" fill="#F0ECC7"/>
<circle cx="53.2165" cy="34.9048" r="5.71058" fill="#F0ECC7"/>
<circle cx="53.2165" cy="45.593" r="5.71058" fill="#F0ECC7"/>
<circle cx="53.2165" cy="56.2812" r="5.71058" fill="#F0ECC7"/>
<circle cx="53.2165" cy="66.9695" r="5.71058" fill="#F0ECC7"/>
<circle cx="53.2165" cy="77.6578" r="5.71058" fill="#F0ECC7"/>
<circle cx="53.2165" cy="88.346" r="5.71058" fill="#F0ECC7"/>
<circle cx="53.2165" cy="99.0342" r="5.71058" fill="#F0ECC7"/>
<circle cx="53.2165" cy="109.722" r="5.71058" fill="#F0ECC7"/>
<circle cx="53.2165" cy="120.411" r="5.71058" fill="#F0ECC7"/>
<circle cx="53.2165" cy="131.099" r="5.71058" fill="#F0ECC7"/>
<circle cx="53.2165" cy="141.787" r="5.71058" fill="#F0ECC7"/>
<circle cx="53.2165" cy="152.475" r="5.71058" fill="#F0ECC7"/>
<circle cx="53.2165" cy="163.164" r="5.71058" fill="#F0ECC7"/>
<circle cx="53.2165" cy="173.852" r="5.71058" fill="#F0ECC7"/>
<circle cx="53.2165" cy="184.54" r="5.71058" fill="#F0ECC7"/>
<circle cx="53.2165" cy="195.228" r="5.71058" fill="#F0ECC7"/>
<circle cx="53.2165" cy="205.917" r="5.71058" fill="#F0ECC7"/>
<circle cx="53.2165" cy="216.605" r="5.71058" fill="#F0ECC7"/>
<circle cx="63.9048" cy="2.84002" r="5.71058" fill="#F0ECC7"/>
<circle cx="63.9048" cy="13.5283" r="5.71058" fill="#F0ECC7"/>
<circle cx="63.9048" cy="24.2165" r="5.71058" fill="#F0ECC7"/>
<circle cx="63.9048" cy="34.9048" r="5.71058" fill="#F0ECC7"/>
<circle cx="63.9048" cy="45.593" r="5.71058" fill="#F0ECC7"/>
<circle cx="63.9048" cy="56.2812" r="5.71058" fill="#F0ECC7"/>
<circle cx="63.9048" cy="66.9695" r="5.71058" fill="#F0ECC7"/>
<circle cx="63.9048" cy="77.6578" r="5.71058" fill="#F0ECC7"/>
<circle cx="63.9048" cy="88.346" r="5.71058" fill="#F0ECC7"/>
<circle cx="63.9048" cy="99.0342" r="5.71058" fill="#F0ECC7"/>
<circle cx="63.9048" cy="109.722" r="5.71058" fill="#F0ECC7"/>
<circle cx="63.9048" cy="120.411" r="5.71058" fill="#F0ECC7"/>
<circle cx="63.9048" cy="131.099" r="5.71058" fill="#F0ECC7"/>
<circle cx="63.9048" cy="141.787" r="5.71058" fill="#F0ECC7"/>
<circle cx="63.9048" cy="152.475" r="5.71058" fill="#F0ECC7"/>
<circle cx="63.9048" cy="163.164" r="5.71058" fill="#F0ECC7"/>
<circle cx="63.9048" cy="173.852" r="5.71058" fill="#F0ECC7"/>
<circle cx="63.9048" cy="184.54" r="5.71058" fill="#F0ECC7"/>
<circle cx="63.9048" cy="195.228" r="5.71058" fill="#F0ECC7"/>
<circle cx="63.9048" cy="205.917" r="5.71058" fill="#F0ECC7"/>
<circle cx="63.9048" cy="216.605" r="5.71058" fill="#F0ECC7"/>
<circle cx="74.593" cy="2.84002" r="5.71058" fill="#F0ECC7"/>
<circle cx="74.593" cy="13.5283" r="5.71058" fill="#F0ECC7"/>
<circle cx="74.593" cy="24.2165" r="5.71058" fill="#F0ECC7"/>
<circle cx="74.593" cy="34.9048" r="5.71058" fill="#F0ECC7"/>
<circle cx="74.593" cy="45.593" r="5.71058" fill="#F0ECC7"/>
<circle cx="74.593" cy="56.2812" r="5.71058" fill="#F0ECC7"/>
<circle cx="74.593" cy="66.9695" r="5.71058" fill="#F0ECC7"/>
<circle cx="74.593" cy="77.6578" r="5.71058" fill="#F0ECC7"/>
<circle cx="74.593" cy="88.346" r="5.71058" fill="#F0ECC7"/>
<circle cx="74.593" cy="99.0342" r="5.71058" fill="#F0ECC7"/>
<circle cx="74.593" cy="109.722" r="5.71058" fill="#F0ECC7"/>
<circle cx="74.593" cy="120.411" r="5.71058" fill="#F0ECC7"/>
<circle cx="74.593" cy="131.099" r="5.71058" fill="#F0ECC7"/>
<circle cx="74.593" cy="141.787" r="5.71058" fill="#F0ECC7"/>
<circle cx="74.593" cy="152.475" r="5.71058" fill="#F0ECC7"/>
<circle cx="74.593" cy="163.164" r="5.71058" fill="#F0ECC7"/>
<circle cx="74.593" cy="173.852" r="5.71058" fill="#F0ECC7"/>
<circle cx="74.593" cy="184.54" r="5.71058" fill="#F0ECC7"/>
<circle cx="74.593" cy="195.228" r="5.71058" fill="#F0ECC7"/>
<circle cx="74.593" cy="205.917" r="5.71058" fill="#F0ECC7"/>
<circle cx="74.593" cy="216.605" r="5.71058" fill="#F0ECC7"/>
<circle cx="85.2812" cy="2.84002" r="5.71058" fill="#F0ECC7"/>
<circle cx="85.2812" cy="13.5283" r="5.71058" fill="#F0ECC7"/>
<circle cx="85.2812" cy="24.2165" r="5.71058" fill="#F0ECC7"/>
<circle cx="85.2812" cy="34.9048" r="5.71058" fill="#F0ECC7"/>
<circle cx="85.2812" cy="45.593" r="5.71058" fill="#F0ECC7"/>
<circle cx="85.2812" cy="56.2812" r="5.71058" fill="#F0ECC7"/>
<circle cx="85.2812" cy="66.9695" r="5.71058" fill="#F0ECC7"/>
<circle cx="85.2812" cy="77.6578" r="5.71058" fill="#F0ECC7"/>
<circle cx="85.2812" cy="88.346" r="5.71058" fill="#F0ECC7"/>
<circle cx="85.2812" cy="99.0342" r="5.71058" fill="#F0ECC7"/>
<circle cx="85.2812" cy="109.722" r="5.71058" fill="#F0ECC7"/>
<circle cx="85.2812" cy="120.411" r="5.71058" fill="#F0ECC7"/>
<circle cx="85.2812" cy="131.099" r="5.71058" fill="#F0ECC7"/>
<circle cx="85.2812" cy="141.787" r="5.71058" fill="#F0ECC7"/>
<circle cx="85.2812" cy="152.475" r="5.71058" fill="#F0ECC7"/>
<circle cx="85.2812" cy="163.164" r="5.71058" fill="#F0ECC7"/>
<circle cx="85.2812" cy="173.852" r="5.71058" fill="#F0ECC7"/>
<circle cx="85.2812" cy="184.54" r="5.71058" fill="#F0ECC7"/>
<circle cx="85.2812" cy="195.228" r="5.71058" fill="#F0ECC7"/>
<circle cx="85.2812" cy="205.917" r="5.71058" fill="#F0ECC7"/>
<circle cx="85.2812" cy="216.605" r="5.71058" fill="#F0ECC7"/>
<circle cx="95.9695" cy="2.84002" r="5.71058" fill="#F0ECC7"/>
<circle cx="95.9695" cy="13.5283" r="5.71058" fill="#F0ECC7"/>
<circle cx="95.9695" cy="24.2165" r="5.71058" fill="#F0ECC7"/>
<circle cx="95.9695" cy="34.9048" r="5.71058" fill="#F0ECC7"/>
<circle cx="95.9695" cy="45.593" r="5.71058" fill="#F0ECC7"/>
<circle cx="95.9695" cy="56.2812" r="5.71058" fill="#F0ECC7"/>
<circle cx="95.9695" cy="66.9695" r="5.71058" fill="#F0ECC7"/>
<circle cx="95.9695" cy="77.6578" r="5.71058" fill="#F0ECC7"/>
<circle cx="95.9695" cy="88.346" r="5.71058" fill="#F0ECC7"/>
<circle cx="95.9695" cy="99.0342" r="5.71058" fill="#F0ECC7"/>
<circle cx="95.9695" cy="109.722" r="5.71058" fill="#F0ECC7"/>
<circle cx="95.9695" cy="120.411" r="5.71058" fill="#F0ECC7"/>
<circle cx="95.9695" cy="131.099" r="5.71058" fill="#F0ECC7"/>
<circle cx="95.9695" cy="141.787" r="5.71058" fill="#F0ECC7"/>
<circle cx="95.9695" cy="152.475" r="5.71058" fill="#F0ECC7"/>
<circle cx="95.9695" cy="163.164" r="5.71058" fill="#F0ECC7"/>
<circle cx="95.9695" cy="173.852" r="5.71058" fill="#F0ECC7"/>
<circle cx="95.9695" cy="184.54" r="5.71058" fill="#F0ECC7"/>
<circle cx="95.9695" cy="195.228" r="5.71058" fill="#F0ECC7"/>
<circle cx="95.9695" cy="205.917" r="5.71058" fill="#F0ECC7"/>
<circle cx="95.9695" cy="216.605" r="5.71058" fill="#F0ECC7"/>
<circle cx="106.658" cy="2.84002" r="5.71058" fill="#F0ECC7"/>
<circle cx="106.658" cy="13.5283" r="5.71058" fill="#F0ECC7"/>
<circle cx="106.658" cy="24.2165" r="5.71058" fill="#F0ECC7"/>
<circle cx="106.658" cy="34.9048" r="5.71058" fill="#F0ECC7"/>
<circle cx="106.658" cy="45.593" r="5.71058" fill="#F0ECC7"/>
<circle cx="106.658" cy="56.2812" r="5.71058" fill="#F0ECC7"/>
<circle cx="106.658" cy="66.9695" r="5.71058" fill="#F0ECC7"/>
<circle cx="106.658" cy="77.6578" r="5.71058" fill="#F0ECC7"/>
<circle cx="106.658" cy="88.346" r="5.71058" fill="#F0ECC7"/>
<circle cx="106.658" cy="99.0342" r="5.71058" fill="#F0ECC7"/>
<circle cx="106.658" cy="109.722" r="5.71058" fill="#F0ECC7"/>
<circle cx="106.658" cy="120.411" r="5.71058" fill="#F0ECC7"/>
<circle cx="106.658" cy="131.099" r="5.71058" fill="#F0ECC7"/>
<circle cx="106.658" cy="141.787" r="5.71058" fill="#F0ECC7"/>
<circle cx="106.658" cy="152.475" r="5.71058" fill="#F0ECC7"/>
<circle cx="106.658" cy="163.164" r="5.71058" fill="#F0ECC7"/>
<circle cx="106.658" cy="173.852" r="5.71058" fill="#F0ECC7"/>
<circle cx="106.658" cy="184.54" r="5.71058" fill="#F0ECC7"/>
<circle cx="106.658" cy="195.228" r="5.71058" fill="#F0ECC7"/>
<circle cx="106.658" cy="205.917" r="5.71058" fill="#F0ECC7"/>
<circle cx="106.658" cy="216.605" r="5.71058" fill="#F0ECC7"/>
<circle cx="117.346" cy="2.84002" r="5.71058" fill="#F0ECC7"/>
<circle cx="117.346" cy="13.5283" r="5.71058" fill="#F0ECC7"/>
<circle cx="117.346" cy="24.2165" r="5.71058" fill="#F0ECC7"/>
<circle cx="117.346" cy="34.9048" r="5.71058" fill="#F0ECC7"/>
<circle cx="117.346" cy="45.593" r="5.71058" fill="#F0ECC7"/>
<circle cx="117.346" cy="56.2812" r="5.71058" fill="#F0ECC7"/>
<circle cx="117.346" cy="66.9695" r="5.71058" fill="#F0ECC7"/>
<circle cx="117.346" cy="77.6578" r="5.71058" fill="#F0ECC7"/>
<circle cx="117.346" cy="88.346" r="5.71058" fill="#F0ECC7"/>
<circle cx="117.346" cy="99.0342" r="5.71058" fill="#F0ECC7"/>
<circle cx="117.346" cy="109.722" r="5.71058" fill="#F0ECC7"/>
<circle cx="117.346" cy="120.411" r="5.71058" fill="#F0ECC7"/>
<circle cx="117.346" cy="131.099" r="5.71058" fill="#F0ECC7"/>
<circle cx="117.346" cy="141.787" r="5.71058" fill="#F0ECC7"/>
<circle cx="117.346" cy="152.475" r="5.71058" fill="#F0ECC7"/>
<circle cx="117.346" cy="163.164" r="5.71058" fill="#F0ECC7"/>
<circle cx="117.346" cy="173.852" r="5.71058" fill="#F0ECC7"/>
<circle cx="117.346" cy="184.54" r="5.71058" fill="#F0ECC7"/>
<circle cx="117.346" cy="195.228" r="5.71058" fill="#F0ECC7"/>
<circle cx="117.346" cy="205.917" r="5.71058" fill="#F0ECC7"/>
<circle cx="117.346" cy="216.605" r="5.71058" fill="#F0ECC7"/>
<circle cx="128.034" cy="2.84002" r="5.71058" fill="#F0ECC7"/>
<circle cx="128.034" cy="13.5283" r="5.71058" fill="#F0ECC7"/>
<circle cx="128.034" cy="24.2165" r="5.71058" fill="#F0ECC7"/>
<circle cx="128.034" cy="34.9048" r="5.71058" fill="#F0ECC7"/>
<circle cx="128.034" cy="45.593" r="5.71058" fill="#F0ECC7"/>
<circle cx="128.034" cy="56.2812" r="5.71058" fill="#F0ECC7"/>
<circle cx="128.034" cy="66.9695" r="5.71058" fill="#F0ECC7"/>
<circle cx="128.034" cy="77.6578" r="5.71058" fill="#F0ECC7"/>
<circle cx="128.034" cy="88.346" r="5.71058" fill="#F0ECC7"/>
<circle cx="128.034" cy="99.0342" r="5.71058" fill="#F0ECC7"/>
<circle cx="128.034" cy="109.722" r="5.71058" fill="#F0ECC7"/>
<circle cx="128.034" cy="120.411" r="5.71058" fill="#F0ECC7"/>
<circle cx="128.034" cy="131.099" r="5.71058" fill="#F0ECC7"/>
<circle cx="128.034" cy="141.787" r="5.71058" fill="#F0ECC7"/>
<circle cx="128.034" cy="152.475" r="5.71058" fill="#F0ECC7"/>
<circle cx="128.034" cy="163.164" r="5.71058" fill="#F0ECC7"/>
<circle cx="128.034" cy="173.852" r="5.71058" fill="#F0ECC7"/>
<circle cx="128.034" cy="184.54" r="5.71058" fill="#F0ECC7"/>
<circle cx="128.034" cy="195.228" r="5.71058" fill="#F0ECC7"/>
<circle cx="128.034" cy="205.917" r="5.71058" fill="#F0ECC7"/>
<circle cx="128.034" cy="216.605" r="5.71058" fill="#F0ECC7"/>
<circle cx="138.722" cy="2.84002" r="5.71058" fill="#F0ECC7"/>
<circle cx="138.722" cy="13.5283" r="5.71058" fill="#F0ECC7"/>
<circle cx="138.722" cy="24.2165" r="5.71058" fill="#F0ECC7"/>
<circle cx="138.722" cy="34.9048" r="5.71058" fill="#F0ECC7"/>
<circle cx="138.722" cy="45.593" r="5.71058" fill="#F0ECC7"/>
<circle cx="138.722" cy="56.2812" r="5.71058" fill="#F0ECC7"/>
<circle cx="138.722" cy="66.9695" r="5.71058" fill="#F0ECC7"/>
<circle cx="138.722" cy="77.6578" r="5.71058" fill="#F0ECC7"/>
<circle cx="138.722" cy="88.346" r="5.71058" fill="#F0ECC7"/>
<circle cx="138.722" cy="99.0342" r="5.71058" fill="#F0ECC7"/>
<circle cx="138.722" cy="109.722" r="5.71058" fill="#F0ECC7"/>
<circle cx="138.722" cy="120.411" r="5.71058" fill="#F0ECC7"/>
<circle cx="138.722" cy="131.099" r="5.71058" fill="#F0ECC7"/>
<circle cx="138.722" cy="141.787" r="5.71058" fill="#F0ECC7"/>
<circle cx="138.722" cy="152.475" r="5.71058" fill="#F0ECC7"/>
<circle cx="138.722" cy="163.164" r="5.71058" fill="#F0ECC7"/>
<circle cx="138.722" cy="173.852" r="5.71058" fill="#F0ECC7"/>
<circle cx="138.722" cy="184.54" r="5.71058" fill="#F0ECC7"/>
<circle cx="138.722" cy="195.228" r="5.71058" fill="#F0ECC7"/>
<circle cx="138.722" cy="205.917" r="5.71058" fill="#F0ECC7"/>
<circle cx="138.722" cy="216.605" r="5.71058" fill="#F0ECC7"/>
<circle cx="149.411" cy="2.84002" r="5.71058" fill="#F0ECC7"/>
<circle cx="149.411" cy="13.5283" r="5.71058" fill="#F0ECC7"/>
<circle cx="149.411" cy="24.2165" r="5.71058" fill="#F0ECC7"/>
<circle cx="149.411" cy="34.9048" r="5.71058" fill="#F0ECC7"/>
<circle cx="149.411" cy="45.593" r="5.71058" fill="#F0ECC7"/>
<circle cx="149.411" cy="56.2812" r="5.71058" fill="#F0ECC7"/>
<circle cx="149.411" cy="66.9695" r="5.71058" fill="#F0ECC7"/>
<circle cx="149.411" cy="77.6578" r="5.71058" fill="#F0ECC7"/>
<circle cx="149.411" cy="88.346" r="5.71058" fill="#F0ECC7"/>
<circle cx="149.411" cy="99.0342" r="5.71058" fill="#F0ECC7"/>
<circle cx="149.411" cy="109.722" r="5.71058" fill="#F0ECC7"/>
<circle cx="149.411" cy="120.411" r="5.71058" fill="#F0ECC7"/>
<circle cx="149.411" cy="131.099" r="5.71058" fill="#F0ECC7"/>
<circle cx="149.411" cy="141.787" r="5.71058" fill="#F0ECC7"/>
<circle cx="149.411" cy="152.475" r="5.71058" fill="#F0ECC7"/>
<circle cx="149.411" cy="163.164" r="5.71058" fill="#F0ECC7"/>
<circle cx="149.411" cy="173.852" r="5.71058" fill="#F0ECC7"/>
<circle cx="149.411" cy="184.54" r="5.71058" fill="#F0ECC7"/>
<circle cx="149.411" cy="195.228" r="5.71058" fill="#F0ECC7"/>
<circle cx="149.411" cy="205.917" r="5.71058" fill="#F0ECC7"/>
<circle cx="149.411" cy="216.605" r="5.71058" fill="#F0ECC7"/>
<circle cx="160.099" cy="2.84002" r="5.71058" fill="#F0ECC7"/>
<circle cx="160.099" cy="13.5283" r="5.71058" fill="#F0ECC7"/>
<circle cx="160.099" cy="24.2165" r="5.71058" fill="#F0ECC7"/>
<circle cx="160.099" cy="34.9048" r="5.71058" fill="#F0ECC7"/>
<circle cx="160.099" cy="45.593" r="5.71058" fill="#F0ECC7"/>
<circle cx="160.099" cy="56.2812" r="5.71058" fill="#F0ECC7"/>
<circle cx="160.099" cy="66.9695" r="5.71058" fill="#F0ECC7"/>
<circle cx="160.099" cy="77.6578" r="5.71058" fill="#F0ECC7"/>
<circle cx="160.099" cy="88.346" r="5.71058" fill="#F0ECC7"/>
<circle cx="160.099" cy="99.0342" r="5.71058" fill="#F0ECC7"/>
<circle cx="160.099" cy="109.722" r="5.71058" fill="#F0ECC7"/>
<circle cx="160.099" cy="120.411" r="5.71058" fill="#F0ECC7"/>
<circle cx="160.099" cy="131.099" r="5.71058" fill="#F0ECC7"/>
<circle cx="160.099" cy="141.787" r="5.71058" fill="#F0ECC7"/>
<circle cx="160.099" cy="152.475" r="5.71058" fill="#F0ECC7"/>
<circle cx="160.099" cy="163.164" r="5.71058" fill="#F0ECC7"/>
<circle cx="160.099" cy="173.852" r="5.71058" fill="#F0ECC7"/>
<circle cx="160.099" cy="184.54" r="5.71058" fill="#F0ECC7"/>
<circle cx="160.099" cy="195.228" r="5.71058" fill="#F0ECC7"/>
<circle cx="160.099" cy="205.917" r="5.71058" fill="#F0ECC7"/>
<circle cx="160.099" cy="216.605" r="5.71058" fill="#F0ECC7"/>
<circle cx="170.787" cy="2.84002" r="5.71058" fill="#F0ECC7"/>
<circle cx="170.787" cy="13.5283" r="5.71058" fill="#F0ECC7"/>
<circle cx="170.787" cy="24.2165" r="5.71058" fill="#F0ECC7"/>
<circle cx="170.787" cy="34.9048" r="5.71058" fill="#F0ECC7"/>
<circle cx="170.787" cy="45.593" r="5.71058" fill="#F0ECC7"/>
<circle cx="170.787" cy="56.2812" r="5.71058" fill="#F0ECC7"/>
<circle cx="170.787" cy="66.9695" r="5.71058" fill="#F0ECC7"/>
<circle cx="170.787" cy="77.6578" r="5.71058" fill="#F0ECC7"/>
<circle cx="170.787" cy="88.346" r="5.71058" fill="#F0ECC7"/>
<circle cx="170.787" cy="99.0342" r="5.71058" fill="#F0ECC7"/>
<circle cx="170.787" cy="109.722" r="5.71058" fill="#F0ECC7"/>
<circle cx="170.787" cy="120.411" r="5.71058" fill="#F0ECC7"/>
<circle cx="170.787" cy="131.099" r="5.71058" fill="#F0ECC7"/>
<circle cx="170.787" cy="141.787" r="5.71058" fill="#F0ECC7"/>
<circle cx="170.787" cy="152.475" r="5.71058" fill="#F0ECC7"/>
<circle cx="170.787" cy="163.164" r="5.71058" fill="#F0ECC7"/>
<circle cx="170.787" cy="173.852" r="5.71058" fill="#F0ECC7"/>
<circle cx="170.787" cy="184.54" r="5.71058" fill="#F0ECC7"/>
<circle cx="170.787" cy="195.228" r="5.71058" fill="#F0ECC7"/>
<circle cx="170.787" cy="205.917" r="5.71058" fill="#F0ECC7"/>
<circle cx="170.787" cy="216.605" r="5.71058" fill="#F0ECC7"/>
<circle cx="181.475" cy="2.84002" r="5.71058" fill="#F0ECC7"/>
<circle cx="181.475" cy="13.5283" r="5.71058" fill="#F0ECC7"/>
<circle cx="181.475" cy="24.2165" r="5.71058" fill="#F0ECC7"/>
<circle cx="181.475" cy="34.9048" r="5.71058" fill="#F0ECC7"/>
<circle cx="181.475" cy="45.593" r="5.71058" fill="#F0ECC7"/>
<circle cx="181.475" cy="56.2812" r="5.71058" fill="#F0ECC7"/>
<circle cx="181.475" cy="66.9695" r="5.71058" fill="#F0ECC7"/>
<circle cx="181.475" cy="77.6578" r="5.71058" fill="#F0ECC7"/>
<circle cx="181.475" cy="88.346" r="5.71058" fill="#F0ECC7"/>
<circle cx="181.475" cy="99.0342" r="5.71058" fill="#F0ECC7"/>
<circle cx="181.475" cy="109.722" r="5.71058" fill="#F0ECC7"/>
<circle cx="181.475" cy="120.411" r="5.71058" fill="#F0ECC7"/>
<circle cx="181.475" cy="131.099" r="5.71058" fill="#F0ECC7"/>
<circle cx="181.475" cy="141.787" r="5.71058" fill="#F0ECC7"/>
<circle cx="181.475" cy="152.475" r="5.71058" fill="#F0ECC7"/>
<circle cx="181.475" cy="163.164" r="5.71058" fill="#F0ECC7"/>
<circle cx="181.475" cy="173.852" r="5.71058" fill="#F0ECC7"/>
<circle cx="181.475" cy="184.54" r="5.71058" fill="#F0ECC7"/>
<circle cx="181.475" cy="195.228" r="5.71058" fill="#F0ECC7"/>
<circle cx="181.475" cy="205.917" r="5.71058" fill="#F0ECC7"/>
<circle cx="181.475" cy="216.605" r="5.71058" fill="#F0ECC7"/>
<circle cx="192.164" cy="2.84002" r="5.71058" fill="#F0ECC7"/>
<circle cx="192.164" cy="13.5283" r="5.71058" fill="#F0ECC7"/>
<circle cx="192.164" cy="24.2165" r="5.71058" fill="#F0ECC7"/>
<circle cx="192.164" cy="34.9048" r="5.71058" fill="#F0ECC7"/>
<circle cx="192.164" cy="45.593" r="5.71058" fill="#F0ECC7"/>
<circle cx="192.164" cy="56.2812" r="5.71058" fill="#F0ECC7"/>
<circle cx="192.164" cy="66.9695" r="5.71058" fill="#F0ECC7"/>
<circle cx="192.164" cy="77.6578" r="5.71058" fill="#F0ECC7"/>
<circle cx="192.164" cy="88.346" r="5.71058" fill="#F0ECC7"/>
<circle cx="192.164" cy="99.0342" r="5.71058" fill="#F0ECC7"/>
<circle cx="192.164" cy="109.722" r="5.71058" fill="#F0ECC7"/>
<circle cx="192.164" cy="120.411" r="5.71058" fill="#F0ECC7"/>
<circle cx="192.164" cy="131.099" r="5.71058" fill="#F0ECC7"/>
<circle cx="192.164" cy="141.787" r="5.71058" fill="#F0ECC7"/>
<circle cx="192.164" cy="152.475" r="5.71058" fill="#F0ECC7"/>
<circle cx="192.164" cy="163.164" r="5.71058" fill="#F0ECC7"/>
<circle cx="192.164" cy="173.852" r="5.71058" fill="#F0ECC7"/>
<circle cx="192.164" cy="184.54" r="5.71058" fill="#F0ECC7"/>
<circle cx="192.164" cy="195.228" r="5.71058" fill="#F0ECC7"/>
<circle cx="192.164" cy="205.917" r="5.71058" fill="#F0ECC7"/>
<circle cx="192.164" cy="216.605" r="5.71058" fill="#F0ECC7"/>
<circle cx="202.852" cy="2.84002" r="5.71058" fill="#F0ECC7"/>
<circle cx="202.852" cy="13.5283" r="5.71058" fill="#F0ECC7"/>
<circle cx="202.852" cy="24.2165" r="5.71058" fill="#F0ECC7"/>
<circle cx="202.852" cy="34.9048" r="5.71058" fill="#F0ECC7"/>
<circle cx="202.852" cy="45.593" r="5.71058" fill="#F0ECC7"/>
<circle cx="202.852" cy="56.2812" r="5.71058" fill="#F0ECC7"/>
<circle cx="202.852" cy="66.9695" r="5.71058" fill="#F0ECC7"/>
<circle cx="202.852" cy="77.6578" r="5.71058" fill="#F0ECC7"/>
<circle cx="202.852" cy="88.346" r="5.71058" fill="#F0ECC7"/>
<circle cx="202.852" cy="99.0342" r="5.71058" fill="#F0ECC7"/>
<circle cx="202.852" cy="109.722" r="5.71058" fill="#F0ECC7"/>
<circle cx="202.852" cy="120.411" r="5.71058" fill="#F0ECC7"/>
<circle cx="202.852" cy="131.099" r="5.71058" fill="#F0ECC7"/>
<circle cx="202.852" cy="141.787" r="5.71058" fill="#F0ECC7"/>
<circle cx="202.852" cy="152.475" r="5.71058" fill="#F0ECC7"/>
<circle cx="202.852" cy="163.164" r="5.71058" fill="#F0ECC7"/>
<circle cx="202.852" cy="173.852" r="5.71058" fill="#F0ECC7"/>
<circle cx="202.852" cy="184.54" r="5.71058" fill="#F0ECC7"/>
<circle cx="202.852" cy="195.228" r="5.71058" fill="#F0ECC7"/>
<circle cx="202.852" cy="205.917" r="5.71058" fill="#F0ECC7"/>
<circle cx="202.852" cy="216.605" r="5.71058" fill="#F0ECC7"/>
<circle cx="213.54" cy="2.84002" r="5.71058" fill="#F0ECC7"/>
<circle cx="213.54" cy="13.5283" r="5.71058" fill="#F0ECC7"/>
<circle cx="213.54" cy="24.2165" r="5.71058" fill="#F0ECC7"/>
<circle cx="213.54" cy="34.9048" r="5.71058" fill="#F0ECC7"/>
<circle cx="213.54" cy="45.593" r="5.71058" fill="#F0ECC7"/>
<circle cx="213.54" cy="56.2812" r="5.71058" fill="#F0ECC7"/>
<circle cx="213.54" cy="66.9695" r="5.71058" fill="#F0ECC7"/>
<circle cx="213.54" cy="77.6578" r="5.71058" fill="#F0ECC7"/>
<circle cx="213.54" cy="88.346" r="5.71058" fill="#F0ECC7"/>
<circle cx="213.54" cy="99.0342" r="5.71058" fill="#F0ECC7"/>
<circle cx="213.54" cy="109.722" r="5.71058" fill="#F0ECC7"/>
<circle cx="213.54" cy="120.411" r="5.71058" fill="#F0ECC7"/>
<circle cx="213.54" cy="131.099" r="5.71058" fill="#F0ECC7"/>
<circle cx="213.54" cy="141.787" r="5.71058" fill="#F0ECC7"/>
<circle cx="213.54" cy="152.475" r="5.71058" fill="#F0ECC7"/>
<circle cx="213.54" cy="163.164" r="5.71058" fill="#F0ECC7"/>
<circle cx="213.54" cy="173.852" r="5.71058" fill="#F0ECC7"/>
<circle cx="213.54" cy="184.54" r="5.71058" fill="#F0ECC7"/>
<circle cx="213.54" cy="195.228" r="5.71058" fill="#F0ECC7"/>
<circle cx="213.54" cy="205.917" r="5.71058" fill="#F0ECC7"/>
<circle cx="213.54" cy="216.605" r="5.71058" fill="#F0ECC7"/>
<circle cx="224.228" cy="2.84002" r="5.71058" fill="#F0ECC7"/>
<circle cx="224.228" cy="13.5283" r="5.71058" fill="#F0ECC7"/>
<circle cx="224.228" cy="24.2165" r="5.71058" fill="#F0ECC7"/>
<circle cx="224.228" cy="34.9048" r="5.71058" fill="#F0ECC7"/>
<circle cx="224.228" cy="45.593" r="5.71058" fill="#F0ECC7"/>
<circle cx="224.228" cy="56.2812" r="5.71058" fill="#F0ECC7"/>
<circle cx="224.228" cy="66.9695" r="5.71058" fill="#F0ECC7"/>
<circle cx="224.228" cy="77.6578" r="5.71058" fill="#F0ECC7"/>
<circle cx="224.228" cy="88.346" r="5.71058" fill="#F0ECC7"/>
<circle cx="224.228" cy="99.0342" r="5.71058" fill="#F0ECC7"/>
<circle cx="224.228" cy="109.722" r="5.71058" fill="#F0ECC7"/>
<circle cx="224.228" cy="120.411" r="5.71058" fill="#F0ECC7"/>
<circle cx="224.228" cy="131.099" r="5.71058" fill="#F0ECC7"/>
<circle cx="224.228" cy="141.787" r="5.71058" fill="#F0ECC7"/>
<circle cx="224.228" cy="152.475" r="5.71058" fill="#F0ECC7"/>
<circle cx="224.228" cy="163.164" r="5.71058" fill="#F0ECC7"/>
<circle cx="224.228" cy="173.852" r="5.71058" fill="#F0ECC7"/>
<circle cx="224.228" cy="184.54" r="5.71058" fill="#F0ECC7"/>
<circle cx="224.228" cy="195.228" r="5.71058" fill="#F0ECC7"/>
<circle cx="224.228" cy="205.917" r="5.71058" fill="#F0ECC7"/>
<circle cx="224.228" cy="216.605" r="5.71058" fill="#F0ECC7"/>
<circle cx="234.917" cy="2.84002" r="5.71058" fill="#F0ECC7"/>
<circle cx="234.917" cy="13.5283" r="5.71058" fill="#F0ECC7"/>
<circle cx="234.917" cy="24.2165" r="5.71058" fill="#F0ECC7"/>
<circle cx="234.917" cy="34.9048" r="5.71058" fill="#F0ECC7"/>
<circle cx="234.917" cy="45.593" r="5.71058" fill="#F0ECC7"/>
<circle cx="234.917" cy="56.2812" r="5.71058" fill="#F0ECC7"/>
<circle cx="234.917" cy="66.9695" r="5.71058" fill="#F0ECC7"/>
<circle cx="234.917" cy="77.6578" r="5.71058" fill="#F0ECC7"/>
<circle cx="234.917" cy="88.346" r="5.71058" fill="#F0ECC7"/>
<circle cx="234.917" cy="99.0342" r="5.71058" fill="#F0ECC7"/>
<circle cx="234.917" cy="109.722" r="5.71058" fill="#F0ECC7"/>
<circle cx="234.917" cy="120.411" r="5.71058" fill="#F0ECC7"/>
<circle cx="234.917" cy="131.099" r="5.71058" fill="#F0ECC7"/>
<circle cx="234.917" cy="141.787" r="5.71058" fill="#F0ECC7"/>
<circle cx="234.917" cy="152.475" r="5.71058" fill="#F0ECC7"/>
<circle cx="234.917" cy="163.164" r="5.71058" fill="#F0ECC7"/>
<circle cx="234.917" cy="173.852" r="5.71058" fill="#F0ECC7"/>
<circle cx="234.917" cy="184.54" r="5.71058" fill="#F0ECC7"/>
<circle cx="234.917" cy="195.228" r="5.71058" fill="#F0ECC7"/>
<circle cx="234.917" cy="205.917" r="5.71058" fill="#F0ECC7"/>
<circle cx="234.917" cy="216.605" r="5.71058" fill="#F0ECC7"/>
<circle cx="245.605" cy="2.84002" r="5.71058" fill="#F0ECC7"/>
<circle cx="245.605" cy="13.5283" r="5.71058" fill="#F0ECC7"/>
<circle cx="245.605" cy="24.2165" r="5.71058" fill="#F0ECC7"/>
<circle cx="245.605" cy="34.9048" r="5.71058" fill="#F0ECC7"/>
<circle cx="245.605" cy="45.593" r="5.71058" fill="#F0ECC7"/>
<circle cx="245.605" cy="56.2812" r="5.71058" fill="#F0ECC7"/>
<circle cx="245.605" cy="66.9695" r="5.71058" fill="#F0ECC7"/>
<circle cx="245.605" cy="77.6578" r="5.71058" fill="#F0ECC7"/>
<circle cx="245.605" cy="88.346" r="5.71058" fill="#F0ECC7"/>
<circle cx="245.605" cy="99.0342" r="5.71058" fill="#F0ECC7"/>
<circle cx="245.605" cy="109.722" r="5.71058" fill="#F0ECC7"/>
<circle cx="245.605" cy="120.411" r="5.71058" fill="#F0ECC7"/>
<circle cx="245.605" cy="131.099" r="5.71058" fill="#F0ECC7"/>
<circle cx="245.605" cy="141.787" r="5.71058" fill="#F0ECC7"/>
<circle cx="245.605" cy="152.475" r="5.71058" fill="#F0ECC7"/>
<circle cx="245.605" cy="163.164" r="5.71058" fill="#F0ECC7"/>
<circle cx="245.605" cy="173.852" r="5.71058" fill="#F0ECC7"/>
<circle cx="245.605" cy="184.54" r="5.71058" fill="#F0ECC7"/>
<circle cx="245.605" cy="195.228" r="5.71058" fill="#F0ECC7"/>
<circle cx="245.605" cy="205.917" r="5.71058" fill="#F0ECC7"/>
<circle cx="245.605" cy="216.605" r="5.71058" fill="#F0ECC7"/>
</mask>
<g mask="url(#mask0_191_891)">
<circle cx="106.478" cy="77.4776" r="144.478" fill="#D9D9D9" fill-opacity="0.5"/>
</g>
<mask id="mask1_191_891" style="mask-type:alpha" maskUnits="userSpaceOnUse" x="1192" y="302" width="425" height="419">
<line x1="1193.87" y1="459.193" x2="1344.53" y2="720.155" stroke="white" stroke-width="2"/>
<line x1="1204.3" y1="453.166" x2="1354.97" y2="714.128" stroke="white" stroke-width="2"/>
<line x1="1214.74" y1="447.14" x2="1365.41" y2="708.102" stroke="white" stroke-width="2"/>
<line x1="1225.18" y1="441.113" x2="1375.85" y2="702.075" stroke="white" stroke-width="2"/>
<line x1="1235.62" y1="435.086" x2="1386.29" y2="696.048" stroke="white" stroke-width="2"/>
<line x1="1246.06" y1="429.06" x2="1396.72" y2="690.022" stroke="white" stroke-width="2"/>
<line x1="1256.5" y1="423.033" x2="1407.16" y2="683.995" stroke="white" stroke-width="2"/>
<line x1="1266.94" y1="417.006" x2="1417.6" y2="677.968" stroke="white" stroke-width="2"/>
<line x1="1277.37" y1="410.98" x2="1428.04" y2="671.942" stroke="white" stroke-width="2"/>
<line x1="1287.81" y1="404.953" x2="1438.48" y2="665.915" stroke="white" stroke-width="2"/>
<line x1="1298.25" y1="398.926" x2="1448.92" y2="659.888" stroke="white" stroke-width="2"/>
<line x1="1308.69" y1="392.9" x2="1459.36" y2="653.862" stroke="white" stroke-width="2"/>
<line x1="1319.13" y1="386.873" x2="1469.79" y2="647.835" stroke="white" stroke-width="2"/>
<line x1="1329.57" y1="380.846" x2="1480.23" y2="641.808" stroke="white" stroke-width="2"/>
<line x1="1340" y1="374.82" x2="1490.67" y2="635.782" stroke="white" stroke-width="2"/>
<line x1="1350.44" y1="368.793" x2="1501.11" y2="629.755" stroke="white" stroke-width="2"/>
<line x1="1360.88" y1="362.767" x2="1511.55" y2="623.728" stroke="white" stroke-width="2"/>
<line x1="1371.32" y1="356.74" x2="1521.99" y2="617.702" stroke="white" stroke-width="2"/>
<line x1="1381.76" y1="350.713" x2="1532.42" y2="611.675" stroke="white" stroke-width="2"/>
<line x1="1392.2" y1="344.687" x2="1542.86" y2="605.648" stroke="white" stroke-width="2"/>
<line x1="1402.64" y1="338.66" x2="1553.3" y2="599.622" stroke="white" stroke-width="2"/>
<line x1="1413.07" y1="332.633" x2="1563.74" y2="593.595" stroke="white" stroke-width="2"/>
<line x1="1423.51" y1="326.607" x2="1574.18" y2="587.568" stroke="white" stroke-width="2"/>
<line x1="1433.95" y1="320.58" x2="1584.62" y2="581.542" stroke="white" stroke-width="2"/>
</mask>
<g mask="url(#mask1_191_891)">
<circle cx="1401.02" cy="511.827" r="125.053" fill="#EEA280" fill-opacity="0.5"/>
</g>
<mask id="mask2_191_891" style="mask-type:alpha" maskUnits="userSpaceOnUse" x="989" y="406" width="424" height="419">
<line x1="989.867" y1="563.193" x2="1140.53" y2="824.155" stroke="white" stroke-width="2"/>
<line x1="1000.31" y1="557.166" x2="1150.97" y2="818.128" stroke="white" stroke-width="2"/>
<line x1="1010.74" y1="551.14" x2="1161.41" y2="812.102" stroke="white" stroke-width="2"/>
<line x1="1021.18" y1="545.113" x2="1171.85" y2="806.075" stroke="white" stroke-width="2"/>
<line x1="1031.62" y1="539.086" x2="1182.29" y2="800.048" stroke="white" stroke-width="2"/>
<line x1="1042.06" y1="533.06" x2="1192.73" y2="794.022" stroke="white" stroke-width="2"/>
<line x1="1052.5" y1="527.033" x2="1203.16" y2="787.995" stroke="white" stroke-width="2"/>
<line x1="1062.94" y1="521.006" x2="1213.6" y2="781.968" stroke="white" stroke-width="2"/>
<line x1="1073.38" y1="514.98" x2="1224.04" y2="775.942" stroke="white" stroke-width="2"/>
<line x1="1083.81" y1="508.953" x2="1234.48" y2="769.915" stroke="white" stroke-width="2"/>
<line x1="1094.25" y1="502.926" x2="1244.92" y2="763.888" stroke="white" stroke-width="2"/>
<line x1="1104.69" y1="496.9" x2="1255.36" y2="757.862" stroke="white" stroke-width="2"/>
<line x1="1115.13" y1="490.873" x2="1265.8" y2="751.835" stroke="white" stroke-width="2"/>
<line x1="1125.57" y1="484.846" x2="1276.23" y2="745.808" stroke="white" stroke-width="2"/>
<line x1="1136.01" y1="478.82" x2="1286.67" y2="739.782" stroke="white" stroke-width="2"/>
<line x1="1146.44" y1="472.793" x2="1297.11" y2="733.755" stroke="white" stroke-width="2"/>
<line x1="1156.88" y1="466.767" x2="1307.55" y2="727.728" stroke="white" stroke-width="2"/>
<line x1="1167.32" y1="460.74" x2="1317.99" y2="721.702" stroke="white" stroke-width="2"/>
<line x1="1177.76" y1="454.713" x2="1328.43" y2="715.675" stroke="white" stroke-width="2"/>
<line x1="1188.2" y1="448.687" x2="1338.86" y2="709.648" stroke="white" stroke-width="2"/>
<line x1="1198.64" y1="442.66" x2="1349.3" y2="703.622" stroke="white" stroke-width="2"/>
<line x1="1209.08" y1="436.633" x2="1359.74" y2="697.595" stroke="white" stroke-width="2"/>
<line x1="1219.51" y1="430.607" x2="1370.18" y2="691.568" stroke="white" stroke-width="2"/>
<line x1="1229.95" y1="424.58" x2="1380.62" y2="685.542" stroke="white" stroke-width="2"/>
<line x1="1240.39" y1="418.553" x2="1391.06" y2="679.515" stroke="white" stroke-width="2"/>
<line x1="1250.83" y1="412.527" x2="1401.5" y2="673.488" stroke="white" stroke-width="2"/>
<line x1="1261.27" y1="406.5" x2="1411.93" y2="667.462" stroke="white" stroke-width="2"/>
</mask>
<g mask="url(#mask2_191_891)">
<circle cx="1197.02" cy="615.827" r="125.053" fill="#EEA280" fill-opacity="0.5"/>
</g>
<mask id="mask3_191_891" style="mask-type:alpha" maskUnits="userSpaceOnUse" x="916" y="35" width="304" height="304">
<line x1="1064.72" y1="35.8646" x2="916.782" y2="183.802" stroke="white" stroke-width="2"/>
<line x1="1070.64" y1="41.7821" x2="922.699" y2="189.72" stroke="white" stroke-width="2"/>
<line x1="1076.55" y1="47.6997" x2="928.617" y2="195.637" stroke="white" stroke-width="2"/>
<line x1="1082.47" y1="53.6172" x2="934.534" y2="201.555" stroke="white" stroke-width="2"/>
<line x1="1088.39" y1="59.5346" x2="940.452" y2="207.472" stroke="white" stroke-width="2"/>
<line x1="1094.31" y1="65.4521" x2="946.369" y2="213.39" stroke="white" stroke-width="2"/>
<line x1="1100.22" y1="71.3697" x2="952.287" y2="219.307" stroke="white" stroke-width="2"/>
<line x1="1106.14" y1="77.2872" x2="958.204" y2="225.225" stroke="white" stroke-width="2"/>
<line x1="1112.06" y1="83.2047" x2="964.122" y2="231.143" stroke="white" stroke-width="2"/>
<line x1="1117.98" y1="89.1223" x2="970.039" y2="237.06" stroke="white" stroke-width="2"/>
<line x1="1123.89" y1="95.0397" x2="975.957" y2="242.977" stroke="white" stroke-width="2"/>
<line x1="1129.81" y1="100.957" x2="981.874" y2="248.895" stroke="white" stroke-width="2"/>
<line x1="1135.73" y1="106.875" x2="987.792" y2="254.813" stroke="white" stroke-width="2"/>
<line x1="1141.65" y1="112.792" x2="993.709" y2="260.73" stroke="white" stroke-width="2"/>
<line x1="1147.56" y1="118.71" x2="999.627" y2="266.648" stroke="white" stroke-width="2"/>
<line x1="1153.48" y1="124.627" x2="1005.54" y2="272.565" stroke="white" stroke-width="2"/>
<line x1="1159.4" y1="130.545" x2="1011.46" y2="278.483" stroke="white" stroke-width="2"/>
<line x1="1165.32" y1="136.462" x2="1017.38" y2="284.4" stroke="white" stroke-width="2"/>
<line x1="1171.23" y1="142.38" x2="1023.3" y2="290.318" stroke="white" stroke-width="2"/>
<line x1="1177.15" y1="148.297" x2="1029.21" y2="296.235" stroke="white" stroke-width="2"/>
<line x1="1183.07" y1="154.215" x2="1035.13" y2="302.153" stroke="white" stroke-width="2"/>
<line x1="1188.99" y1="160.132" x2="1041.05" y2="308.07" stroke="white" stroke-width="2"/>
<line x1="1194.9" y1="166.05" x2="1046.97" y2="313.988" stroke="white" stroke-width="2"/>
<line x1="1200.82" y1="171.967" x2="1052.88" y2="319.905" stroke="white" stroke-width="2"/>
<line x1="1206.74" y1="177.885" x2="1058.8" y2="325.823" stroke="white" stroke-width="2"/>
<line x1="1212.66" y1="183.802" x2="1064.72" y2="331.74" stroke="white" stroke-width="2"/>
<line x1="1218.57" y1="189.72" x2="1070.64" y2="337.658" stroke="white" stroke-width="2"/>
</mask>
<g mask="url(#mask3_191_891)">
<circle cx="1066.43" cy="184.033" r="86.8245" transform="rotate(75 1066.43 184.033)" fill="#EEA280" fill-opacity="0.2"/>
</g>
<mask id="mask4_191_891" style="mask-type:alpha" maskUnits="userSpaceOnUse" x="-26" y="511" width="374" height="383">
<line x1="56.1772" y1="892.839" x2="347.242" y2="814.849" stroke="white" stroke-width="2"/>
<line x1="53.0576" y1="881.197" x2="344.123" y2="803.206" stroke="white" stroke-width="2"/>
<line x1="49.938" y1="869.554" x2="341.003" y2="791.563" stroke="white" stroke-width="2"/>
<line x1="46.8184" y1="857.911" x2="337.883" y2="779.921" stroke="white" stroke-width="2"/>
<line x1="43.6987" y1="846.269" x2="334.764" y2="768.278" stroke="white" stroke-width="2"/>
<line x1="40.5791" y1="834.626" x2="331.644" y2="756.636" stroke="white" stroke-width="2"/>
<line x1="37.4595" y1="822.984" x2="328.525" y2="744.993" stroke="white" stroke-width="2"/>
<line x1="34.3399" y1="811.341" x2="325.405" y2="733.35" stroke="white" stroke-width="2"/>
<line x1="31.2202" y1="799.699" x2="322.285" y2="721.708" stroke="white" stroke-width="2"/>
<line x1="28.1006" y1="788.056" x2="319.166" y2="710.065" stroke="white" stroke-width="2"/>
<line x1="24.981" y1="776.413" x2="316.046" y2="698.423" stroke="white" stroke-width="2"/>
<line x1="21.8613" y1="764.771" x2="312.926" y2="686.78" stroke="white" stroke-width="2"/>
<line x1="18.7417" y1="753.128" x2="309.807" y2="675.138" stroke="white" stroke-width="2"/>
<line x1="15.6221" y1="741.485" x2="306.687" y2="663.495" stroke="white" stroke-width="2"/>
<line x1="12.5025" y1="729.843" x2="303.568" y2="651.852" stroke="white" stroke-width="2"/>
<line x1="9.38288" y1="718.2" x2="300.448" y2="640.21" stroke="white" stroke-width="2"/>
<line x1="6.26326" y1="706.558" x2="297.328" y2="628.567" stroke="white" stroke-width="2"/>
<line x1="3.14359" y1="694.915" x2="294.209" y2="616.925" stroke="white" stroke-width="2"/>
<line x1="0.0239768" y1="683.273" x2="291.089" y2="605.282" stroke="white" stroke-width="2"/>
<line x1="-3.09564" y1="671.63" x2="287.969" y2="593.639" stroke="white" stroke-width="2"/>
<line x1="-6.21526" y1="659.987" x2="284.85" y2="581.997" stroke="white" stroke-width="2"/>
<line x1="-9.33488" y1="648.345" x2="281.73" y2="570.354" stroke="white" stroke-width="2"/>
<line x1="-12.4545" y1="636.702" x2="278.611" y2="558.711" stroke="white" stroke-width="2"/>
<line x1="-15.5742" y1="625.06" x2="275.491" y2="547.069" stroke="white" stroke-width="2"/>
<line x1="-18.6938" y1="613.417" x2="272.371" y2="535.426" stroke="white" stroke-width="2"/>
<line x1="-21.8134" y1="601.774" x2="269.252" y2="523.784" stroke="white" stroke-width="2"/>
<line x1="-24.933" y1="590.132" x2="266.132" y2="512.141" stroke="white" stroke-width="2"/>
</mask>
<g mask="url(#mask4_191_891)">
<circle cx="160.634" cy="706.367" r="125.053" transform="rotate(-75 160.634 706.367)" fill="#FCCAB3" fill-opacity="0.4"/>
</g>
<mask id="mask5_191_891" style="mask-type:alpha" maskUnits="userSpaceOnUse" x="40" y="468" width="373" height="384">
<line x1="121.417" y1="850.274" x2="412.482" y2="772.284" stroke="white" stroke-width="2"/>
<line x1="118.297" y1="838.632" x2="409.362" y2="760.641" stroke="white" stroke-width="2"/>
<line x1="115.178" y1="826.989" x2="406.243" y2="748.998" stroke="white" stroke-width="2"/>
<line x1="112.058" y1="815.346" x2="403.123" y2="737.356" stroke="white" stroke-width="2"/>
<line x1="108.938" y1="803.704" x2="400.004" y2="725.713" stroke="white" stroke-width="2"/>
<line x1="105.819" y1="792.061" x2="396.884" y2="714.071" stroke="white" stroke-width="2"/>
<line x1="102.699" y1="780.419" x2="393.764" y2="702.428" stroke="white" stroke-width="2"/>
<line x1="99.5796" y1="768.776" x2="390.645" y2="690.785" stroke="white" stroke-width="2"/>
<line x1="96.46" y1="757.133" x2="387.525" y2="679.143" stroke="white" stroke-width="2"/>
<line x1="93.3404" y1="745.491" x2="384.405" y2="667.5" stroke="white" stroke-width="2"/>
<line x1="90.2207" y1="733.848" x2="381.286" y2="655.858" stroke="white" stroke-width="2"/>
<line x1="87.1011" y1="722.206" x2="378.166" y2="644.215" stroke="white" stroke-width="2"/>
<line x1="83.9815" y1="710.563" x2="375.047" y2="632.572" stroke="white" stroke-width="2"/>
<line x1="80.8619" y1="698.92" x2="371.927" y2="620.93" stroke="white" stroke-width="2"/>
<line x1="77.7422" y1="687.278" x2="368.807" y2="609.287" stroke="white" stroke-width="2"/>
<line x1="74.6226" y1="675.635" x2="365.688" y2="597.645" stroke="white" stroke-width="2"/>
<line x1="71.503" y1="663.993" x2="362.568" y2="586.002" stroke="white" stroke-width="2"/>
<line x1="68.3833" y1="652.35" x2="359.448" y2="574.359" stroke="white" stroke-width="2"/>
<line x1="65.2637" y1="640.707" x2="356.329" y2="562.717" stroke="white" stroke-width="2"/>
<line x1="62.1441" y1="629.065" x2="353.209" y2="551.074" stroke="white" stroke-width="2"/>
<line x1="59.0245" y1="617.422" x2="350.09" y2="539.432" stroke="white" stroke-width="2"/>
<line x1="55.9049" y1="605.78" x2="346.97" y2="527.789" stroke="white" stroke-width="2"/>
<line x1="52.7853" y1="594.137" x2="343.85" y2="516.146" stroke="white" stroke-width="2"/>
<line x1="49.6656" y1="582.494" x2="340.731" y2="504.504" stroke="white" stroke-width="2"/>
<line x1="46.546" y1="570.852" x2="337.611" y2="492.861" stroke="white" stroke-width="2"/>
<line x1="43.4264" y1="559.209" x2="334.491" y2="481.219" stroke="white" stroke-width="2"/>
<line x1="40.3067" y1="547.567" x2="331.372" y2="469.576" stroke="white" stroke-width="2"/>
</mask>
<g mask="url(#mask5_191_891)">
<circle cx="225.873" cy="663.802" r="125.053" transform="rotate(-75 225.873 663.802)" fill="#FCCAB3"/>
</g>
</svg>
