<svg width="20" height="22" viewBox="0 0 20 22" fill="none" xmlns="http://www.w3.org/2000/svg">
<path d="M20 16.5659V10.2356C20 9.06978 20 8.48687 19.6854 8.04803C19.4312 7.69354 19.0236 7.50513 18.2963 7.25146C18.1476 9.04576 17.5566 10.8782 16.6283 12.482C15.5476 14.3494 13.9427 16.0189 11.8856 16.9212C10.6867 17.447 9.31333 17.447 8.11445 16.9212C6.05738 16.0189 4.45242 14.3494 3.37166 12.482C2.66762 11.2655 2.15756 9.91756 1.88736 8.55437C1.4623 8.49142 1.13611 8.52371 0.854633 8.6816C0.742322 8.7446 0.637644 8.82046 0.542678 8.90766C0 9.40603 0 10.3326 0 12.1857V17.6928C0 18.8586 -6.62274e-08 19.4415 0.3146 19.8803C0.629189 20.3192 1.17921 20.5035 2.27924 20.8722L2.70542 21.015C4.45761 21.6022 5.33372 21.8958 6.22987 21.8975C6.49978 21.898 6.76936 21.8788 7.03649 21.8399C7.92333 21.7108 8.75656 21.2919 10.4229 20.4543C11.6999 19.8123 12.3384 19.4913 13.0167 19.3424C13.2547 19.2901 13.4959 19.2537 13.7387 19.2333C14.4306 19.1751 15.1286 19.292 16.5246 19.526C17.9394 19.763 18.6468 19.8815 19.1633 19.5834C19.3387 19.4821 19.4943 19.3496 19.6226 19.1923C20 18.729 20 18.008 20 16.5659Z" fill="#FFC747"/>
<path fill-rule="evenodd" clip-rule="evenodd" d="M9.99999 0C6.31809 0 3.33333 2.851 3.33333 6.36789C3.33333 9.85718 5.46109 13.9289 8.78088 15.385C9.55477 15.7245 10.4452 15.7245 11.2191 15.385C14.5389 13.9289 16.6667 9.85718 16.6667 6.36789C16.6667 2.851 13.6819 0 9.99999 0ZM9.99999 8.9369C11.2273 8.9369 12.2222 7.93661 12.2222 6.70268C12.2222 5.46875 11.2273 4.46845 9.99999 4.46845C8.77266 4.46845 7.77777 5.46875 7.77777 6.70268C7.77777 7.93661 8.77266 8.9369 9.99999 8.9369Z" fill="#FFC747"/>
</svg>
