<svg width="22" height="17" viewBox="0 0 22 17" fill="none" xmlns="http://www.w3.org/2000/svg">
<path d="M1 4.21363L7.05547 8.10566C8.48106 9.02187 9.19389 9.48002 9.96422 9.65806C10.6451 9.81531 11.3549 9.81531 12.0358 9.65806C12.8061 9.48002 13.519 9.02187 14.9446 8.10566L21 4.21363M4.55556 15.9969H17.4444C18.689 15.9969 19.3113 15.9969 19.7867 15.7634C20.2048 15.5581 20.5448 15.2303 20.7578 14.8272C21 14.3689 21 13.7689 21 12.5691V4.42787C21 3.22801 21 2.62807 20.7578 2.16978C20.5448 1.76665 20.2048 1.43891 19.7867 1.23351C19.3113 1 18.689 1 17.4444 1H4.55556C3.311 1 2.68871 1 2.21336 1.23351C1.79521 1.43891 1.45526 1.76665 1.24221 2.16978C1 2.62807 1 3.228 1 4.42787V12.5691C1 13.7689 1 14.3689 1.24221 14.8272C1.45526 15.2303 1.79521 15.5581 2.21336 15.7634C2.68871 15.9969 3.31099 15.9969 4.55556 15.9969Z" stroke="#FFC747" stroke-linecap="round" stroke-linejoin="round"/>
</svg>
