<svg width="22" height="21" viewBox="0 0 22 21" fill="none" xmlns="http://www.w3.org/2000/svg">
<path d="M1 3.67803C1 12.848 8.71066 20.2818 18.2222 20.2818C18.6513 20.2818 19.0768 20.2667 19.4981 20.2369C19.9816 20.2027 20.2232 20.1857 20.4433 20.0636C20.6256 19.9625 20.7983 19.7831 20.8897 19.6005C21 19.38 21 19.1228 21 18.6086V15.5906C21 15.1581 21 14.9418 20.9261 14.7565C20.861 14.5927 20.755 14.4469 20.6177 14.3319C20.4622 14.2016 20.2513 14.1277 19.8298 13.9799L16.2667 12.7307C15.7761 12.5588 15.5308 12.4728 15.2981 12.4873C15.0929 12.5002 14.8954 12.5678 14.7277 12.6824C14.5374 12.8123 14.4032 13.0281 14.1347 13.4597L13.2222 14.9257C10.2779 13.6402 7.891 11.336 6.55556 8.49847L8.07626 7.61882C8.52383 7.35991 8.74762 7.23046 8.88244 7.04705C9.00133 6.88532 9.07145 6.69495 9.08478 6.49713C9.09989 6.27279 9.01067 6.03633 8.83233 5.56341L7.53666 2.12821C7.38333 1.72174 7.30668 1.5185 7.17158 1.3686C7.05223 1.23619 6.90099 1.13406 6.73113 1.07118C6.53884 1 6.31453 1 5.86591 1H2.73557C2.20209 1 1.93534 1 1.70664 1.10632C1.51722 1.19438 1.33127 1.36101 1.22633 1.53671C1.09964 1.74885 1.08194 1.98189 1.04654 2.44799C1.0157 2.85412 1 3.2643 1 3.67803Z" stroke="#FFC747" stroke-linecap="round" stroke-linejoin="round"/>
</svg>
