<svg width="17" height="19" viewBox="0 0 17 19" fill="none" xmlns="http://www.w3.org/2000/svg">
<path d="M6.525 9.5L10.2083 13.2778M10.2083 9.5L6.525 13.2778M13.8917 3.83333L13.1542 15.1788C13.0896 16.1725 13.0573 16.6694 12.8481 17.0461C12.6638 17.3778 12.3859 17.6444 12.051 17.8109C11.6706 18 11.1851 18 10.214 18H6.51926C5.54824 18 5.06274 18 4.68231 17.8109C4.34739 17.6444 4.0695 17.3778 3.88527 17.0461C3.67601 16.6694 3.64371 16.1725 3.57913 15.1788L2.84167 3.83333M1 3.83333H15.7333M12.05 3.83333L11.8008 3.06651C11.5593 2.3234 11.4385 1.95185 11.2145 1.67715C11.0167 1.43457 10.7628 1.2468 10.4758 1.13107C10.1509 1 9.7691 1 9.00536 1H7.72798C6.96424 1 6.58246 1 6.25751 1.13107C5.97058 1.2468 5.71658 1.43457 5.5188 1.67715C5.29481 1.95185 5.17406 2.3234 4.93255 3.06651L4.68333 3.83333" stroke="black" stroke-linecap="round" stroke-linejoin="round"/>
</svg>
