<svg width="19" height="19" viewBox="0 0 19 19" fill="none" xmlns="http://www.w3.org/2000/svg">
<path d="M11.2647 13.9377L9.5473 12.2346C8.758 11.4519 8.3633 11.0605 7.9089 10.9137C7.5092 10.7845 7.079 10.7845 6.67922 10.9137C6.22485 11.0605 5.83017 11.4519 5.04082 12.2346L1.04193 16.2622M11.2647 13.9377L11.606 13.5991C12.412 12.7999 12.8149 12.4003 13.2773 12.2545C13.6839 12.1262 14.1208 12.1312 14.5244 12.2688C14.9832 12.4253 15.3769 12.834 16.1642 13.6515L17 14.5001M11.2647 13.9377L15.22 17.9628M1.04193 16.2622C1.07264 16.5226 1.12583 16.7271 1.21799 16.908C1.40973 17.2843 1.7157 17.5903 2.09202 17.782C2.51984 18 3.07989 18 4.2 18H13.8C14.4213 18 14.8703 18 15.22 17.9628M1.04193 16.2622C1 15.9066 1 15.4466 1 14.8V5.2C1 4.0799 1 3.51984 1.21799 3.09202C1.40973 2.71569 1.7157 2.40973 2.09202 2.21799C2.51984 2 3.07989 2 4.2 2H8M15.22 17.9628C15.5007 17.9329 15.7175 17.8791 15.908 17.782C16.2843 17.5903 16.5903 17.2843 16.782 16.908C17 16.4802 17 15.9201 17 14.8V11M15 7V4M15 4V1M15 4H18M15 4H12" stroke="black" stroke-linecap="round" stroke-linejoin="round"/>
</svg>
